<svg xmlns="http://www.w3.org/2000/svg" width="899" height="192" fill="none"><g clip-path="url(#a)"><path fill="#fff" d="M898.85 0H-.19v192h899.04z"/><path fill="#3B4856" d="M433.26 152.96h3.09c.65 0 .98 0 .98-.65 0-.33-.16-.33-.81-.33h-2.93l1.3-4.88q.16-.49.16-.81c0-.49-.49-.81-.81-.81s-.98.16-1.3 1.14l-1.3 5.37h-3.09c-.65 0-.98 0-.98.65 0 .33.16.33.81.33h2.93l-2.28 8.95c-.33 1.14-.33 1.46-.33 1.95 0 1.63 1.14 3.09 2.93 3.09 3.42 0 5.21-4.88 5.21-5.21 0-.16-.16-.33-.33-.33 0 0-.16 0-.33.16l-.33.65c-.65 1.63-2.28 4.07-4.23 4.07-.98 0-1.14-.81-1.14-1.63 0 0 0-.65.16-1.14l2.6-10.58z"/><path stroke="#3B4856" stroke-linecap="round" stroke-linejoin="round" stroke-width="2" d="M432.44 135.78v-9"/><path stroke="#B1B6BC" stroke-linecap="round" stroke-miterlimit="10" stroke-width="2" d="M22.49 126.5h817.63"/><path fill="#B1B6BC" d="m833.49 134.68-1.36-1.47 7.22-6.71-7.22-6.71 1.36-1.47 8.8 8.18z"/><path fill="#fff" stroke="#FFC100" stroke-linecap="round" stroke-linejoin="round" stroke-width="2" d="M432.44 58.46c-9.16 0-16.59 7.43-16.59 16.59s16.59 31.38 16.59 31.38 16.59-22.22 16.59-31.38-7.43-16.59-16.59-16.59m0 24.37c-4.3 0-7.78-3.48-7.78-7.78s3.48-7.78 7.78-7.78 7.78 3.48 7.78 7.78-3.48 7.78-7.78 7.78"/><path stroke="#FFC100" stroke-linecap="round" stroke-linejoin="round" stroke-width="2" d="M418.86 106.43h27.17"/><path fill="#3B4856" d="M148.04 91.55h1.71l.04 10.61 7.04-10.64h1.84l.04 12.88h-1.73l-.04-10.58-7.02 10.61h-1.84zM163.99 104.56c-.68 0-1.28-.07-1.79-.22s-.92-.33-1.22-.54l.48-1.36c.31.19.67.36 1.08.5s.88.21 1.4.21c.32 0 .62-.03.9-.08s.52-.14.73-.25c.21-.12.37-.27.49-.46s.18-.42.18-.7c0-.53-.18-.91-.53-1.13s-.91-.33-1.67-.33h-1.24v-1.27h1.3c1.24 0 1.85-.47 1.85-1.4 0-.24-.05-.44-.16-.6q-.15-.24-.42-.39c-.17-.1-.38-.17-.6-.21q-.345-.06-.72-.06c-.53 0-.99.08-1.39.22-.4.15-.78.32-1.12.53l-.38-1.31c.3-.2.7-.4 1.2-.57.5-.18 1.08-.27 1.75-.27 1.09 0 1.92.21 2.47.64s.83 1.05.83 1.87c0 .62-.17 1.11-.5 1.46s-.79.58-1.37.69c1.49.18 2.24.89 2.24 2.13 0 .53-.1.97-.31 1.34q-.315.555-.84.9c-.35.23-.76.4-1.21.51-.46.1-.93.16-1.42.16zM170.03 95.02h3.49c1.13-.02 1.98.18 2.56.56s.87 1 .87 1.82c0 .55-.13.99-.41 1.32-.27.33-.68.57-1.2.71 1.33.21 2 .95 2 2.21 0 .48-.09.89-.28 1.23s-.45.62-.79.84-.74.37-1.21.47-.99.15-1.54.15h-3.46l-.03-9.33zm1.59 1.34v2.54h1.77c.6 0 1.08-.11 1.45-.33s.55-.53.55-.94c0-.49-.17-.83-.49-1.01s-.79-.27-1.39-.27h-1.89zm.01 3.8V103h1.86c.34 0 .64-.02.91-.07.27-.04.5-.12.7-.23s.35-.25.46-.43.16-.4.16-.67c0-.54-.19-.92-.55-1.13-.37-.21-.93-.32-1.68-.32h-1.85zM187.08 103.52c-.13.1-.3.2-.49.31-.2.11-.43.21-.71.32-.28.1-.59.19-.94.25-.35.07-.75.1-1.18.1-1.57 0-2.77-.42-3.59-1.27s-1.23-2.04-1.24-3.58q0-1.14.33-2.04c.22-.6.53-1.11.92-1.53s.86-.73 1.41-.96 1.14-.34 1.77-.34c.66 0 1.25.11 1.78.34s.96.56 1.31 1.01c.34.45.58 1 .71 1.65q.195.99 0 2.28l-6.59.02c.06 1.01.37 1.76.93 2.26.55.5 1.33.74 2.34.74.66 0 1.22-.11 1.67-.32.46-.21.84-.43 1.15-.64l.42 1.39zm-3.75-7.32c-.7 0-1.29.21-1.78.64s-.8 1.06-.93 1.91l5.02-.02c.02-.43-.02-.81-.13-1.12a2.1 2.1 0 0 0-.47-.79c-.21-.21-.45-.37-.75-.47-.29-.1-.62-.15-.96-.15M193.4 104.46c-.68 0-1.31-.1-1.89-.32-.58-.21-1.07-.53-1.49-.94s-.74-.92-.97-1.51-.35-1.27-.35-2.04c0-.76.11-1.44.34-2.04.23-.61.56-1.12.97-1.54.42-.42.91-.75 1.48-.97s1.19-.34 1.86-.34c.56 0 1.09.06 1.58.18s.89.3 1.22.54l-.39 1.37c-.3-.17-.64-.32-1.03-.47q-.57-.21-1.35-.21c-.94 0-1.68.29-2.24.87s-.83 1.45-.83 2.62c0 1.09.28 1.94.84 2.52.55.59 1.3.88 2.24.88.46 0 .87-.06 1.24-.18s.73-.28 1.06-.47l.38 1.3c-.33.24-.72.42-1.15.56-.43.13-.94.2-1.53.2zM201.91 96.26l.03 7.99h-1.58l-.03-7.99h-2.84v-1.34l7.33-.02v1.35h-2.89zM212.94 100.08l-4.52.02v4.14h-1.57l-.03-9.34h1.58l.01 3.85 4.52-.02v-3.85h1.57l.03 9.34h-1.58l-.01-4.13zM222.67 102.64c-.13.2-.29.41-.47.62-.19.21-.41.4-.67.56s-.55.3-.89.4-.71.15-1.12.16c-.84 0-1.52-.23-2.04-.71q-.78-.705-.78-2.04c0-2.03 1.49-3.05 4.49-3.06h1.37v-.71c0-.65-.17-1.11-.52-1.38-.34-.27-.91-.41-1.7-.41-.61 0-1.16.08-1.63.24q-.705.24-1.23.54l-.38-1.31c.32-.21.77-.4 1.35-.59s1.24-.28 2-.29c1.2 0 2.12.24 2.75.73s.95 1.25.95 2.27l.02 5v.37c0 .14.01.28.02.42l.03.4c.01.13.02.23.04.32h-1.46c-.03-.16-.05-.4-.08-.71s-.05-.57-.05-.8v-.04zm-2.81.33q.495 0 .93-.15c.28-.1.53-.22.75-.38a4.3 4.3 0 0 0 1.03-1.05v-1.56h-1.23c-1.13 0-1.92.16-2.38.45-.46.3-.68.72-.68 1.26 0 .42.13.77.38 1.03.25.27.65.4 1.19.39zM231.89 100.77h-1.6l-2.38 3.4h-1.82l2.69-3.78c-.65-.19-1.15-.48-1.51-.88-.36-.39-.53-.95-.54-1.65 0-.53.09-.98.28-1.36s.46-.69.81-.94.76-.43 1.24-.55 1-.18 1.57-.19h2.81l.03 9.33h-1.57zm0-1.35v-3.26h-1.25c-.67 0-1.22.13-1.65.38s-.65.66-.64 1.23c0 .59.19 1.01.58 1.27.38.26.93.38 1.64.38h1.33zM239.76 94.78h1.58l.02 7.18 4.96-7.2h1.6l.03 9.34h-1.58l-.02-7.16-4.94 7.18h-1.62zM254.75 104.26c-.68 0-1.31-.1-1.89-.32-.58-.21-1.07-.53-1.49-.94s-.74-.92-.97-1.51-.35-1.27-.35-2.04c0-.76.11-1.44.34-2.04.23-.61.56-1.12.97-1.54.42-.42.91-.74 1.48-.97.57-.22 1.19-.34 1.86-.34.56 0 1.09.06 1.58.17.49.12.89.3 1.22.54l-.39 1.37c-.3-.17-.64-.32-1.03-.46q-.57-.21-1.35-.21c-.94 0-1.68.29-2.24.87s-.83 1.45-.83 2.62c0 1.09.28 1.94.84 2.52.55.59 1.3.88 2.24.88.46 0 .87-.06 1.24-.19.37-.12.73-.28 1.06-.47l.38 1.3c-.33.24-.72.42-1.15.56-.43.13-.94.2-1.53.2zM263.25 96.06l.03 7.99h-1.58l-.03-7.99h-2.84v-1.34l7.33-.03v1.35h-2.89zM271.76 104.2c-.64 0-1.23-.1-1.78-.32-.55-.21-1.03-.53-1.43-.94s-.72-.92-.95-1.52-.35-1.29-.35-2.07c0-.77.11-1.46.33-2.06s.54-1.11.94-1.52.88-.72 1.43-.94 1.14-.33 1.78-.33c.65 0 1.25.1 1.8.32.55.21 1.03.53 1.43.93.4.41.72.91.96 1.52s.35 1.29.36 2.06c0 .78-.11 1.47-.34 2.07s-.55 1.11-.95 1.52c-.4.42-.88.73-1.43.95q-.825.33-1.8.33m0-1.4q.63 0 1.17-.21t.93-.63c.26-.28.46-.64.61-1.08s.22-.95.22-1.54-.08-1.1-.23-1.53a3.2 3.2 0 0 0-.61-1.07q-.39-.42-.93-.63c-.36-.14-.75-.21-1.17-.2-.42 0-.8.07-1.15.21s-.65.35-.91.63q-.39.42-.6 1.08c-.14.43-.21.95-.21 1.54s.08 1.1.22 1.53.35.79.61 1.07.56.49.91.63.73.21 1.15.2zM283.1 104.16c-.72 0-1.34-.16-1.86-.5s-.94-.79-1.26-1.38l.02 4.9h-1.58l-.04-12.52h1.4l.15 1.83q.465-.915 1.26-1.47c.53-.37 1.18-.55 1.96-.56.54 0 1.06.1 1.56.29.5.2.94.5 1.32.89.38.4.68.9.9 1.51s.34 1.32.34 2.13c0 .83-.11 1.54-.33 2.15-.23.61-.53 1.11-.91 1.52-.38.4-.83.7-1.33.9s-1.03.3-1.58.3zm-.24-1.4c.83 0 1.5-.29 2.01-.86s.76-1.44.76-2.59c0-1.13-.26-1.99-.77-2.57q-.765-.87-2.01-.87c-.41 0-.79.08-1.14.22-.35.15-.66.36-.92.64s-.46.64-.61 1.08c-.15.43-.22.94-.22 1.52s.08 1.08.23 1.51.36.79.62 1.08.56.5.92.64c.35.14.74.21 1.14.2zM289.38 94.62h1.58l.02 7.18 4.96-7.2h1.6l.03 9.34h-1.58l-.02-7.16-4.94 7.18h-1.62zM305.42 100.52h-1.6l-2.38 3.4h-1.82l2.69-3.78c-.65-.19-1.15-.48-1.51-.88s-.53-.95-.54-1.66c0-.53.09-.98.28-1.36s.46-.69.81-.94.76-.43 1.24-.55 1-.18 1.57-.18h2.81l.03 9.33h-1.57zm0-1.35v-3.26h-1.25c-.67 0-1.22.13-1.65.38s-.65.66-.64 1.23c0 .59.19 1.01.58 1.27.38.26.93.38 1.64.38h1.33zM379.18 44.61c-.9 0-1.73-.14-2.5-.44s-1.44-.73-2-1.3c-.57-.57-1.01-1.26-1.33-2.08s-.48-1.75-.49-2.78c0-1.04.14-1.97.43-2.79s.71-1.51 1.25-2.08a5.3 5.3 0 0 1 1.98-1.31c.77-.3 1.63-.46 2.58-.46.84 0 1.57.09 2.21.28.63.19 1.14.4 1.54.64l-.26 1.66c-.47-.33-1-.6-1.59-.78s-1.22-.27-1.91-.27c-1.39 0-2.47.43-3.25 1.28-.77.85-1.15 2.12-1.15 3.83s.43 2.98 1.26 3.82q1.26 1.26 3.36 1.26c.61 0 1.16-.1 1.66-.28q.735-.27 1.44-.72l.47 1.42c-.35.28-.84.53-1.46.76-.63.23-1.38.35-2.24.35zM392.57 43.6c-.13.1-.3.2-.49.31-.2.11-.43.21-.71.31s-.59.19-.94.25c-.35.07-.75.1-1.18.1-1.57 0-2.77-.42-3.59-1.27s-1.23-2.04-1.24-3.58q0-1.14.33-2.04c.22-.6.53-1.11.92-1.53q.585-.615 1.41-.96c.54-.22 1.14-.34 1.77-.34.66 0 1.25.11 1.78.34s.96.56 1.31 1.01c.34.45.58 1 .71 1.65.13.66.13 1.42 0 2.29l-6.59.02c.06 1.01.37 1.76.93 2.26.55.5 1.33.74 2.34.74.66 0 1.22-.11 1.67-.32.46-.21.84-.43 1.15-.64l.42 1.39zm-3.75-7.32c-.7 0-1.29.21-1.78.64s-.8 1.06-.93 1.91l5.02-.02c.02-.43-.02-.81-.13-1.12a2.1 2.1 0 0 0-.47-.79c-.2-.21-.45-.37-.75-.46-.29-.1-.62-.15-.96-.15zM394.84 35.03h1.58l.02 7.18 4.96-7.2h1.6l.03 9.34h-1.58l-.02-7.16-4.94 7.18h-1.62zm4.12-1.26c-.48 0-.9-.06-1.25-.19a2.26 2.26 0 0 1-1.41-1.29c-.11-.29-.17-.61-.17-.96h1.58c0 .45.11.78.34.98.22.2.53.3.91.3s.68-.1.9-.31.32-.54.32-.99h1.58c0 .68-.23 1.26-.69 1.73s-1.17.71-2.11.72zM411.47 44.32v-4.16c-.33.25-.7.46-1.14.62s-.95.24-1.52.24c-1 0-1.78-.26-2.34-.79s-.85-1.34-.85-2.45v-2.79h1.59v2.75c.01.73.17 1.24.5 1.53s.76.43 1.3.43c.55 0 1.04-.1 1.48-.31.43-.21.75-.46.97-.78v-3.63h1.57l.03 9.34h-1.59M421.2 42.74c-.13.2-.29.41-.47.62-.19.21-.41.4-.67.56s-.55.29-.89.4c-.34.1-.71.15-1.12.15-.84 0-1.52-.23-2.04-.7q-.78-.705-.78-2.04c0-2.03 1.49-3.05 4.49-3.06h1.37v-.71c0-.65-.17-1.11-.52-1.38-.34-.28-.91-.41-1.7-.41-.61 0-1.16.08-1.63.24q-.705.24-1.23.54l-.38-1.31c.32-.21.77-.4 1.35-.59s1.24-.28 2-.29c1.2 0 2.12.24 2.75.73s.95 1.24.95 2.26l.02 5v.37c0 .14.01.28.02.42 0 .14.02.28.03.4s.02.23.04.31h-1.46c-.03-.16-.05-.4-.08-.71s-.05-.57-.05-.8m-2.81.33q.495 0 .93-.15c.28-.1.53-.22.75-.38s.42-.32.59-.51.32-.36.44-.54v-1.56h-1.23c-1.13 0-1.92.15-2.38.45s-.68.72-.68 1.26c0 .42.13.77.38 1.03.25.27.65.4 1.19.39zM429.38 44.44c-.68 0-1.31-.1-1.89-.32-.58-.21-1.07-.53-1.49-.94s-.74-.91-.97-1.51c-.23-.59-.35-1.27-.35-2.04 0-.76.11-1.44.34-2.04.23-.61.56-1.12.97-1.54.42-.42.91-.74 1.48-.97.57-.22 1.19-.34 1.86-.34.56 0 1.09.06 1.58.17.49.12.89.3 1.22.54l-.39 1.37c-.3-.17-.64-.32-1.03-.46s-.83-.21-1.35-.21c-.94 0-1.68.29-2.24.87s-.83 1.45-.83 2.62q0 1.65.84 2.52c.55.59 1.3.88 2.24.88.46 0 .87-.06 1.24-.19.37-.12.73-.28 1.06-.47l.38 1.3c-.33.24-.72.42-1.15.56s-.94.2-1.53.2zM439.2 36.42l.03 7.81h-1.46l-.03-9.34h2.43l2.83 6.26 2.9-6.29h2.32l.03 9.33h-1.57l-.03-7.81-3.15 6.78h-1.26l-3.05-6.75zM450.98 34.85h1.58l.01 3.25h1.55c1.18 0 2.1.22 2.77.69s1.01 1.22 1.02 2.27c0 .54-.09 1.01-.28 1.4s-.46.72-.81.97-.76.44-1.24.56-1 .18-1.57.19H451l-.03-9.33zm1.6 4.6v3.38h1.43c.68 0 1.24-.13 1.66-.39s.64-.69.63-1.29c0-.61-.2-1.05-.58-1.31-.39-.26-.92-.39-1.6-.39h-1.55zm8.28 4.71h-1.58l-.03-9.34h1.58zM470.81 36.13l.03 7.99h-1.58l-.03-7.99h-2.84v-1.34l7.33-.03v1.35h-2.89zM476.64 47.47c-.2 0-.39 0-.57-.03s-.31-.06-.42-.11l.19-1.37c.06.03.15.05.27.07s.28.04.49.04c.44 0 .81-.11 1.1-.32q.435-.315.81-1.02l-3.63-9.96h1.71l2.78 7.9 2.78-7.93h1.55l-3.26 9.24c-.4 1.13-.9 1.99-1.48 2.59q-.87.9-2.31.9zM489.13 36.07l.03 7.99h-1.58l-.03-7.99h-2.84v-1.34l7.33-.02v1.35h-2.89zM545.41 98.95l-3.74 5.54h-1.8l4.69-6.8-4.12-6.09h2.02l3.33 4.9 3.13-4.92h1.8l-4.1 6.15 4.59 6.74h-2.03l-3.76-5.51zM556.5 104.62c-.64 0-1.23-.1-1.78-.32s-1.03-.53-1.43-.94-.72-.92-.95-1.52-.35-1.29-.35-2.07c0-.77.11-1.46.33-2.06.23-.61.54-1.11.94-1.52s.88-.72 1.43-.94 1.14-.33 1.78-.33c.65 0 1.25.1 1.8.32.55.21 1.03.53 1.43.93.4.41.72.91.96 1.52s.35 1.29.36 2.06c0 .78-.11 1.47-.34 2.07s-.55 1.11-.95 1.52c-.4.42-.88.73-1.43.95q-.825.33-1.8.33m0-1.4q.63 0 1.17-.21t.93-.63c.26-.28.46-.64.61-1.08s.22-.95.22-1.54-.08-1.1-.23-1.53a3.2 3.2 0 0 0-.61-1.07q-.39-.42-.93-.63c-.36-.14-.75-.21-1.17-.2-.42 0-.8.07-1.15.21s-.65.35-.91.64q-.39.42-.6 1.08-.21.645-.21 1.53c0 .59.08 1.1.22 1.53.15.43.35.79.61 1.07s.56.49.91.63.73.21 1.15.2zM566.51 96.41l.03 7.99h-1.58l-.03-7.99h-2.84v-1.34l7.33-.02v1.35h-2.89zM571.42 95.05H573l.02 7.18 4.96-7.2h1.6l.03 9.34h-1.58l-.02-7.16-4.94 7.18h-1.62zM583.83 96.54l.03 7.81h-1.46l-.03-9.34h2.43l2.83 6.26 2.9-6.29h2.32l.03 9.33h-1.57l-.03-7.81-3.15 6.78h-1.26l-3.05-6.75zM605.05 96.28h-4.32l.03 8.01h-1.58l-.03-9.34 7.49-.03.03 9.34h-1.58l-.03-7.99zM614.13 104.43c-.72 0-1.34-.16-1.86-.5s-.94-.79-1.26-1.38l.02 4.9h-1.58l-.04-12.52h1.4l.15 1.83q.465-.915 1.26-1.47c.53-.37 1.18-.55 1.96-.56.54 0 1.06.1 1.56.29q.75.3 1.32.9c.38.4.68.9.9 1.51s.34 1.32.34 2.13c0 .83-.11 1.55-.33 2.15-.23.61-.53 1.11-.91 1.52-.38.4-.83.7-1.33.9s-1.03.3-1.58.3zm-.24-1.4c.83 0 1.5-.29 2.01-.86s.76-1.44.76-2.59c0-1.13-.26-1.99-.77-2.57q-.765-.87-2.01-.87c-.41 0-.79.07-1.14.22s-.66.36-.92.64-.46.64-.61 1.08c-.15.43-.22.94-.22 1.52s.08 1.08.23 1.51.36.79.62 1.08.56.5.92.64c.35.14.74.21 1.14.21zM624.28 104.39c-.64 0-1.23-.1-1.78-.32-.55-.21-1.03-.53-1.43-.94s-.72-.92-.95-1.52-.35-1.29-.35-2.07c0-.77.11-1.46.33-2.06.23-.61.54-1.11.94-1.52s.88-.72 1.43-.94 1.14-.33 1.78-.33c.65 0 1.25.1 1.8.32.55.21 1.03.52 1.43.93s.72.91.96 1.52.35 1.29.36 2.06c0 .78-.11 1.47-.34 2.07s-.55 1.11-.95 1.52c-.4.42-.88.73-1.43.95q-.825.33-1.8.33m0-1.4q.63 0 1.17-.21t.93-.63c.26-.28.46-.64.61-1.08.15-.43.22-.95.22-1.54s-.08-1.1-.23-1.53a3.2 3.2 0 0 0-.61-1.07q-.39-.42-.93-.63c-.36-.14-.75-.21-1.17-.2s-.8.07-1.15.21-.65.35-.91.63q-.39.42-.6 1.08c-.14.43-.21.95-.21 1.54s.08 1.1.22 1.53.35.79.61 1.07.56.49.91.63.73.21 1.15.2zM632.48 96.19l.03 7.99h-1.58l-.03-9.34 5.76-.02v1.35l-4.17.01zM644.88 100l-4.52.02v4.14h-1.57l-.03-9.34h1.58l.01 3.85 4.52-.02V94.8h1.57l.03 9.34h-1.58l-.01-4.13zM653.08 104.3c-.64 0-1.23-.1-1.78-.32-.55-.21-1.03-.53-1.43-.94s-.72-.92-.95-1.52-.35-1.29-.35-2.07c0-.77.11-1.46.33-2.06.23-.61.54-1.11.94-1.52s.88-.72 1.43-.94 1.14-.33 1.78-.33c.65 0 1.25.1 1.8.32.55.21 1.03.52 1.43.93s.72.91.96 1.52.35 1.29.36 2.06c0 .78-.11 1.47-.34 2.07s-.55 1.11-.95 1.52c-.4.42-.88.73-1.43.95q-.825.33-1.8.33m0-1.4q.63 0 1.17-.21t.93-.63c.26-.28.46-.64.61-1.08.15-.43.22-.95.22-1.54s-.08-1.1-.23-1.53a3.2 3.2 0 0 0-.61-1.07q-.39-.42-.93-.63c-.36-.14-.75-.21-1.17-.2-.42 0-.8.07-1.15.21s-.65.35-.91.63q-.39.42-.6 1.08c-.14.43-.21.95-.21 1.54s.08 1.1.22 1.53.35.79.61 1.07.56.49.91.63.73.21 1.15.2zM661.94 104.27c-.68 0-1.28-.07-1.79-.22s-.92-.33-1.22-.54l.48-1.36c.31.19.67.36 1.08.5s.88.21 1.4.21c.32 0 .62-.03.9-.08s.52-.14.73-.26.37-.27.49-.45c.12-.19.18-.42.18-.7 0-.53-.18-.91-.53-1.13s-.91-.33-1.67-.33h-1.24v-1.27h1.3c1.24 0 1.85-.47 1.85-1.4 0-.24-.05-.44-.16-.6q-.15-.24-.42-.39c-.17-.1-.38-.17-.6-.21q-.345-.06-.72-.06c-.53 0-.99.08-1.39.22-.4.15-.78.32-1.12.53l-.38-1.31q.45-.3 1.2-.57c.5-.17 1.08-.26 1.75-.27 1.09 0 1.92.21 2.47.64s.83 1.05.83 1.87c0 .62-.17 1.11-.5 1.46s-.79.58-1.37.69c1.49.18 2.24.89 2.24 2.14 0 .53-.1.97-.31 1.34q-.315.555-.84.9c-.35.23-.76.4-1.21.51-.46.1-.93.16-1.42.16zM667.97 94.72h1.58l.02 7.18 4.96-7.2h1.6l.03 9.34h-1.58l-.02-7.16-4.94 7.18H668zM683.65 104.19c-.72 0-1.34-.16-1.86-.5q-.78-.495-1.26-1.38l.02 4.9h-1.58l-.04-12.52h1.4l.15 1.83q.465-.915 1.26-1.47c.53-.37 1.18-.55 1.96-.56.54 0 1.06.1 1.56.29.5.2.94.5 1.32.89.38.4.68.9.9 1.51s.34 1.32.34 2.13c0 .83-.11 1.54-.33 2.15-.23.61-.53 1.11-.91 1.52-.38.4-.83.7-1.33.9s-1.03.3-1.58.3zm-.24-1.4c.83 0 1.5-.29 2.01-.86s.76-1.44.76-2.59c0-1.13-.26-1.99-.77-2.57q-.765-.87-2.01-.87c-.41 0-.79.08-1.14.22-.35.15-.66.36-.92.64s-.46.64-.61 1.08c-.15.43-.22.94-.22 1.52s.08 1.08.23 1.51.36.79.62 1.08.56.5.92.64c.35.14.74.21 1.14.2zM693.8 104.16c-.64 0-1.23-.1-1.78-.32s-1.03-.53-1.43-.94-.72-.92-.95-1.52-.35-1.29-.35-2.07c0-.77.11-1.46.33-2.06.23-.61.54-1.11.94-1.52s.88-.72 1.43-.94 1.14-.33 1.78-.33c.65 0 1.25.1 1.8.32.55.21 1.03.53 1.43.93.4.41.72.91.96 1.52s.35 1.29.36 2.06c0 .78-.11 1.47-.34 2.07s-.55 1.11-.95 1.52c-.4.42-.88.73-1.43.95q-.825.33-1.8.33m0-1.4q.63 0 1.17-.21t.93-.63c.26-.28.46-.64.61-1.08s.22-.95.22-1.54-.08-1.1-.23-1.53a3.2 3.2 0 0 0-.61-1.07q-.39-.42-.93-.63c-.36-.14-.75-.21-1.17-.2-.42 0-.8.07-1.15.21s-.65.35-.91.64q-.39.42-.6 1.08-.21.645-.21 1.53c0 .59.08 1.1.22 1.53.15.43.35.79.61 1.07s.56.49.91.63.73.21 1.15.2zM700.41 94.62h3.49c1.13-.02 1.98.18 2.56.56s.87 1 .87 1.82c0 .55-.13.99-.41 1.32-.27.33-.68.57-1.2.72 1.33.21 2 .95 2 2.21 0 .48-.09.89-.28 1.23s-.45.62-.79.84-.74.38-1.21.47c-.47.1-.99.15-1.54.15h-3.46l-.03-9.33zm1.59 1.34v2.54h1.77c.6 0 1.08-.11 1.45-.33s.55-.53.55-.94c0-.49-.17-.83-.49-1.01s-.79-.27-1.39-.27H702zm.01 3.8v2.84h1.86c.34 0 .64-.02.91-.07.27-.04.5-.12.7-.23s.35-.25.46-.43.16-.4.16-.67c0-.54-.19-.92-.55-1.13-.37-.21-.93-.32-1.68-.32h-1.85zM715.36 102.36c-.13.2-.29.41-.47.62-.19.21-.41.4-.67.56s-.55.3-.89.4-.71.16-1.12.16c-.84 0-1.52-.23-2.04-.7q-.78-.705-.78-2.04c0-2.03 1.49-3.05 4.49-3.06h1.37v-.71c0-.65-.17-1.11-.52-1.38-.34-.27-.91-.41-1.7-.41-.61 0-1.16.08-1.63.24q-.705.24-1.23.54l-.38-1.31c.32-.21.77-.4 1.35-.59s1.24-.28 2-.29c1.2 0 2.12.24 2.75.73s.95 1.24.95 2.26l.02 5v.37c0 .14.01.28.02.42 0 .14.02.28.03.4.01.13.02.23.04.32h-1.46c-.03-.16-.05-.4-.08-.71s-.05-.57-.05-.8v-.04zm-2.81.33q.495 0 .93-.15c.28-.1.53-.22.75-.38a4.3 4.3 0 0 0 1.03-1.05v-1.56h-1.23c-1.13 0-1.92.16-2.38.45-.46.3-.68.72-.68 1.26 0 .42.13.77.38 1.03s.65.4 1.19.39zM722.98 95.89l.03 7.99h-1.58l-.03-7.99h-2.84v-1.34l7.33-.02v1.35H723zM727.84 94.52h1.58l.01 3.25h1.64c1.19 0 2.12.22 2.78.69.67.47 1 1.22 1.01 2.26 0 .54-.09 1.01-.28 1.41s-.46.72-.81.97-.76.44-1.24.56-1 .18-1.57.18h-3.1l-.03-9.33zm1.6 4.6v3.38h1.52c.68 0 1.24-.13 1.66-.39s.64-.69.63-1.29c0-.61-.2-1.05-.58-1.31-.39-.26-.92-.39-1.6-.39h-1.64z"/><g fill="#3B4856" opacity=".5"><path d="M494.76 152.95h-6.62v5.63h-1.71v-12.89h1.71v5.72h6.62v-5.72h1.69v12.89h-1.69zM506.91 157.8c-.13.1-.3.2-.5.3-.2.11-.44.21-.71.31-.28.1-.59.18-.94.25-.35.06-.75.1-1.18.1-1.57 0-2.77-.43-3.58-1.28-.82-.85-1.22-2.05-1.22-3.58 0-.76.11-1.43.33-2.03s.53-1.11.93-1.52.87-.73 1.41-.95q.825-.33 1.77-.33c.63 0 1.25.11 1.78.34s.96.57 1.3 1.01c.34.45.58 1 .7 1.65s.12 1.42 0 2.29h-6.59c.06 1.01.37 1.76.92 2.26q.825.75 2.34.75c.66 0 1.22-.11 1.67-.31.46-.21.84-.42 1.15-.64l.41 1.39zm-3.73-7.33c-.7 0-1.29.21-1.78.63s-.8 1.06-.94 1.91h5.02c.02-.43-.02-.81-.13-1.12s-.26-.58-.47-.79c-.2-.21-.45-.37-.75-.47q-.435-.15-.96-.15zM511.39 156.17c-.2.85-.53 1.48-.98 1.88s-1.08.59-1.88.57l-.23-1.44c.83.04 1.36-.41 1.6-1.33.18-.7.3-1.58.35-2.64s.08-2.38.08-3.97h6.08v9.34h-1.58v-7.99h-3.01c-.01 1.19-.04 2.24-.1 3.17s-.17 1.73-.33 2.41M519.13 149.24h1.58v3.26h1.64c1.19 0 2.11.23 2.78.7s1 1.22 1 2.27c0 .54-.1 1.01-.29 1.4-.19.4-.46.72-.81.97s-.76.44-1.24.56-1 .18-1.57.18h-3.1v-9.34zm1.58 4.61v3.38h1.51c.68 0 1.24-.13 1.66-.39.43-.26.64-.69.64-1.29s-.19-1.05-.58-1.31c-.38-.26-.92-.4-1.6-.4h-1.64zM530.47 158.77c-.68 0-1.28-.07-1.79-.22s-.92-.33-1.21-.54l.49-1.36c.31.19.67.36 1.08.5s.88.22 1.4.22c.32 0 .62-.03.9-.08s.52-.14.73-.25.37-.27.49-.45c.12-.19.18-.42.18-.7 0-.53-.18-.91-.53-1.13s-.91-.33-1.66-.33h-1.24v-1.28h1.3c1.24 0 1.85-.46 1.85-1.38q0-.36-.15-.6c-.1-.16-.24-.29-.41-.4-.17-.1-.38-.17-.6-.22s-.47-.06-.72-.06c-.53 0-.99.07-1.4.22-.4.14-.78.32-1.12.52l-.38-1.31q.45-.3 1.2-.57c.5-.17 1.08-.26 1.75-.26 1.09 0 1.91.22 2.47.65.55.43.83 1.06.83 1.87 0 .62-.17 1.11-.5 1.46-.34.35-.79.58-1.37.68 1.49.18 2.23.89 2.23 2.14 0 .53-.1.98-.31 1.34-.21.37-.49.67-.85.9-.35.23-.76.4-1.22.5s-.93.15-1.42.15zM541.35 155.2h-1.6l-2.39 3.38h-1.82l2.7-3.78c-.65-.19-1.15-.49-1.5-.88-.35-.4-.53-.95-.53-1.66 0-.53.1-.98.29-1.36s.46-.69.81-.94.76-.43 1.24-.55 1-.18 1.57-.18h2.81v9.34h-1.57v-3.38zm0-1.35v-3.26h-1.24c-.67 0-1.22.12-1.66.38-.43.25-.65.66-.65 1.22s.19 1.01.58 1.27c.38.26.93.39 1.64.39zM549.229 149.24h1.581v7.18l4.989-7.18h1.601v9.34h-1.58v-7.16l-4.971 7.16h-1.62zM564.19 158.77c-.68 0-1.311-.11-1.891-.32a4 4 0 0 1-1.479-.95c-.41-.42-.731-.92-.961-1.51s-.339-1.28-.339-2.04.12-1.44.35-2.04c.23-.61.559-1.12.979-1.54s.921-.74 1.491-.96q.855-.33 1.86-.33c.56 0 1.09.06 1.58.18s.89.3 1.21.54l-.4 1.37c-.3-.17-.64-.32-1.03-.47-.38-.14-.83-.22-1.35-.22-.94 0-1.681.29-2.241.87s-.839 1.45-.839 2.62c0 1.09.28 1.94.83 2.53s1.3.88 2.23.88c.46 0 .87-.06 1.24-.18s.73-.28 1.06-.47l.38 1.3c-.34.24-.721.42-1.151.55s-.939.2-1.529.2zM574.95 150.59h-4.32v7.99h-1.58v-9.34h7.49v9.34h-1.58v-7.99zM583.14 158.77c-.64 0-1.23-.11-1.78-.32-.55-.22-1.03-.53-1.43-.95s-.72-.92-.94-1.52-.34-1.29-.34-2.07.11-1.45.34-2.06.54-1.11.94-1.52.88-.72 1.43-.94c.55-.21 1.15-.32 1.78-.32s1.25.11 1.8.32c.55.22 1.03.53 1.43.94s.72.92.95 1.52c.23.61.35 1.29.35 2.06s-.12 1.47-.35 2.07-.55 1.11-.95 1.52-.88.73-1.43.95-1.15.32-1.8.32m0-1.4q.63 0 1.17-.21t.93-.63c.26-.28.46-.64.61-1.07s.22-.94.22-1.53-.07-1.1-.22-1.53-.35-.79-.61-1.07q-.39-.42-.93-.63a3.2 3.2 0 0 0-1.17-.21c-.42 0-.8.07-1.15.21s-.65.35-.91.63-.46.64-.6 1.07-.22.94-.22 1.53.07 1.1.22 1.53.34.79.6 1.07.56.49.91.63.73.21 1.15.21M591.69 156.17c-.2.85-.53 1.48-.98 1.88s-1.08.59-1.88.57l-.23-1.44c.83.04 1.36-.41 1.6-1.33.18-.7.3-1.58.35-2.64s.08-2.38.08-3.97h6.08v9.34h-1.58v-7.99h-3.01c-.01 1.19-.04 2.24-.1 3.17s-.17 1.73-.33 2.41M599.43 149.24h1.58v3.26h1.64c1.19 0 2.11.23 2.78.7s1 1.22 1 2.27c0 .54-.1 1.01-.29 1.4-.19.4-.46.72-.81.97s-.76.44-1.24.56-1 .18-1.57.18h-3.1v-9.34zm1.58 4.61v3.38h1.51c.68 0 1.24-.13 1.66-.39.43-.26.64-.69.64-1.29s-.19-1.05-.58-1.31c-.38-.26-.92-.4-1.6-.4H601zM610.77 158.77c-.68 0-1.281-.07-1.791-.22s-.919-.33-1.209-.54l.49-1.36c.31.19.67.36 1.08.5s.88.22 1.4.22c.32 0 .62-.03.9-.08s.52-.14.73-.25.369-.27.489-.45c.12-.19.18-.42.18-.7 0-.53-.179-.91-.529-1.13s-.911-.33-1.661-.33h-1.24v-1.28h1.3c1.24 0 1.851-.46 1.851-1.38q0-.36-.151-.6c-.1-.16-.239-.29-.409-.4-.17-.1-.381-.17-.601-.22s-.469-.06-.719-.06c-.53 0-.991.07-1.401.22-.4.14-.78.32-1.12.52l-.38-1.31q.45-.3 1.201-.57c.5-.17 1.08-.26 1.75-.26 1.09 0 1.91.22 2.47.65.55.43.829 1.06.829 1.87 0 .62-.17 1.11-.5 1.46-.34.35-.79.58-1.37.68 1.49.18 2.231.89 2.231 2.14 0 .53-.1.98-.31 1.34-.21.37-.49.67-.85.9-.35.23-.76.4-1.22.5s-.931.15-1.421.15zM620.67 158.77c-.64 0-1.23-.11-1.78-.32-.55-.22-1.03-.53-1.43-.95s-.72-.92-.94-1.52-.34-1.29-.34-2.07.11-1.45.34-2.06.54-1.11.94-1.52.88-.72 1.43-.94c.55-.21 1.15-.32 1.78-.32s1.25.11 1.8.32c.55.22 1.03.53 1.43.94s.72.92.95 1.52c.23.61.35 1.29.35 2.06s-.12 1.47-.35 2.07-.55 1.11-.95 1.52-.88.73-1.43.95-1.15.32-1.8.32m0-1.4q.63 0 1.17-.21t.93-.63c.26-.28.46-.64.61-1.07s.22-.94.22-1.53-.07-1.1-.22-1.53-.35-.79-.61-1.07q-.39-.42-.93-.63a3.2 3.2 0 0 0-1.17-.21c-.42 0-.8.07-1.15.21s-.65.35-.91.63-.46.64-.6 1.07-.22.94-.22 1.53.07 1.1.22 1.53.34.79.6 1.07.56.49.91.63.73.21 1.15.21M627.31 149.24h3.49c1.13 0 1.98.19 2.56.58s.86 1 .86 1.83c0 .55-.14.99-.41 1.32s-.68.57-1.21.71c1.33.22 2 .95 2 2.21 0 .48-.1.89-.29 1.23s-.46.62-.79.84c-.34.22-.74.37-1.22.47s-.99.14-1.54.14h-3.46v-9.34zm1.58 1.35v2.54h1.76c.6 0 1.08-.11 1.45-.32.37-.22.55-.53.55-.94 0-.49-.16-.83-.49-1.01-.32-.18-.79-.27-1.39-.27h-1.89zm0 3.8v2.84h1.85c.34 0 .64-.02.91-.06s.5-.12.7-.22c.2-.11.35-.25.46-.43s.16-.4.16-.67c0-.54-.18-.92-.55-1.13s-.93-.32-1.68-.32h-1.85zM642.229 157.04c-.13.21-.289.41-.479.62s-.41.4-.67.56-.56.29-.89.4c-.34.1-.71.15-1.12.15-.84 0-1.521-.24-2.031-.71s-.769-1.16-.769-2.04c0-2.03 1.5-3.04 4.5-3.04h1.37v-.7c0-.65-.17-1.11-.51-1.39s-.91-.41-1.7-.41c-.61 0-1.151.08-1.631.23s-.879.34-1.229.54l-.38-1.31c.32-.2.769-.4 1.349-.59s1.24-.28 2-.28c1.2 0 2.111.25 2.741.74s.949 1.25.949 2.27v5.37c0 .14.011.28.021.42 0 .14.02.28.03.41s.02.23.04.32h-1.461c-.02-.17-.049-.41-.079-.71-.03-.31-.04-.57-.04-.8v-.04zm-2.81.32c.34 0 .65-.05.93-.14.28-.1.53-.22.76-.38.22-.16.421-.32.591-.5s.32-.36.44-.54v-1.56h-1.221c-1.13 0-1.92.15-2.38.44s-.68.72-.68 1.26c0 .42.131.77.381 1.03s.65.4 1.19.4zM649.88 150.59v7.99h-1.58v-7.99h-2.84v-1.35h7.33v1.35h-2.9099999999999997M654.74 149.24h1.58v3.26h1.64c1.19 0 2.11.23 2.78.7s1 1.22 1 2.27c0 .54-.1 1.01-.29 1.4-.19.4-.46.72-.81.97s-.76.44-1.24.56-1 .18-1.57.18h-3.101v-9.34zm1.58 4.61v3.38h1.51c.68 0 1.24-.13 1.66-.39.43-.26.64-.69.64-1.29s-.191-1.05-.581-1.31c-.38-.26-.919-.4-1.599-.4h-1.64zM674.63 158.59h-6.95l-.16 2.66h-1.42v-4.01h.7c.34-.2.6-.52.79-.95s.34-.98.45-1.64.18-1.44.23-2.34q.06-1.35.12-3.06h6.43v7.99h1.4v4.01h-1.39zm-1.4-7.99h-3.4c-.04.89-.08 1.69-.14 2.39-.06.71-.14 1.33-.23 1.87s-.21 1.01-.35 1.39c-.14.39-.32.72-.52.98h4.64v-6.64zM680.23 156.17c-.2.85-.53 1.48-.98 1.88s-1.08.59-1.88.57l-.23-1.44c.83.04 1.36-.41 1.6-1.33.18-.7.3-1.58.35-2.64s.08-2.38.08-3.97h6.08v9.34h-1.58v-7.99h-3.01c-.01 1.19-.04 2.24-.1 3.17s-.17 1.73-.33 2.41M693.1 155.2h-1.6l-2.39 3.38h-1.82l2.7-3.78c-.65-.19-1.15-.49-1.5-.88-.35-.4-.53-.95-.53-1.66 0-.53.1-.98.29-1.36s.46-.69.81-.94.76-.43 1.24-.55 1-.18 1.57-.18h2.81v9.34h-1.57v-3.38zm0-1.35v-3.26h-1.24c-.67 0-1.22.12-1.66.38-.43.25-.65.66-.65 1.22s.19 1.01.58 1.27c.38.26.93.39 1.64.39zM706.89 150.59h-4.32v7.99h-1.58v-9.34h7.49v9.34h-1.58v-7.99zM715.94 158.77c-.72 0-1.34-.17-1.86-.5s-.94-.8-1.25-1.39v4.9h-1.58v-12.53h1.4l.139 1.84q.465-.915 1.26-1.47c.53-.37 1.181-.55 1.961-.55q.81 0 1.56.3c.5.2.94.5 1.31.9.38.4.68.91.9 1.51s.329 1.32.329 2.13-.109 1.55-.339 2.15-.531 1.11-.921 1.51c-.38.4-.829.7-1.329.9s-1.03.3-1.58.3m-.23-1.4c.83 0 1.499-.29 2.009-.86s.771-1.43.771-2.59-.261-1.99-.771-2.57-1.179-.88-2.009-.88c-.41 0-.79.07-1.14.22s-.66.36-.92.64-.461.64-.611 1.07-.219.94-.219 1.52.069 1.08.219 1.52c.15.43.351.79.611 1.08s.56.5.92.64.73.21 1.14.21M722.26 149.24h1.58v7.18l4.99-7.18h1.6v9.34h-1.58v-7.16l-4.97 7.16h-1.62zM735.51 158.77c-.68 0-1.28-.07-1.79-.22s-.92-.33-1.21-.54l.49-1.36c.31.19.67.36 1.08.5s.88.22 1.4.22c.32 0 .62-.03.9-.08s.52-.14.73-.25.37-.27.49-.45c.12-.19.18-.42.18-.7 0-.53-.18-.91-.53-1.13s-.91-.33-1.66-.33h-1.24v-1.28h1.3c1.24 0 1.85-.46 1.85-1.38q0-.36-.15-.6c-.1-.16-.24-.29-.41-.4-.17-.1-.38-.17-.6-.22s-.47-.06-.72-.06c-.53 0-.99.07-1.4.22-.4.14-.78.32-1.12.52l-.38-1.31q.45-.3 1.2-.57c.5-.17 1.08-.26 1.75-.26 1.09 0 1.91.22 2.47.65.55.43.83 1.06.83 1.87 0 .62-.17 1.11-.5 1.46-.34.35-.79.58-1.37.68 1.49.18 2.23.89 2.23 2.14 0 .53-.1.98-.31 1.34-.21.37-.49.67-.85.9-.35.23-.76.4-1.22.5s-.93.15-1.42.15zM747.68 154.44h-4.52v4.14h-1.58v-9.34h1.58v3.85h4.52v-3.85h1.58v9.34h-1.58zM757.399 157.04c-.13.21-.29.41-.48.62s-.41.4-.67.56-.56.29-.89.4c-.34.1-.71.15-1.12.15-.84 0-1.52-.24-2.03-.71s-.77-1.16-.77-2.04c0-2.03 1.5-3.04 4.5-3.04h1.37v-.7c0-.65-.17-1.11-.51-1.39s-.91-.41-1.7-.41c-.61 0-1.15.08-1.63.23s-.88.34-1.23.54l-.38-1.31c.32-.2.77-.4 1.35-.59s1.24-.28 2-.28c1.2 0 2.11.25 2.74.74s.95 1.25.95 2.27v5.37c0 .14.01.28.02.42 0 .14.02.28.03.41s.02.23.04.32h-1.46c-.02-.17-.05-.41-.08-.71-.03-.31-.04-.57-.04-.8v-.04zm-2.81.32c.34 0 .65-.05.93-.14.28-.1.53-.22.76-.38.22-.16.42-.32.59-.5s.32-.36.44-.54v-1.56h-1.22c-1.13 0-1.92.15-2.38.44s-.68.72-.68 1.26c0 .42.13.77.38 1.03s.65.4 1.19.4zM763.97 154.61h-.83v3.98h-1.58v-9.34h1.58v4.01h.9l3.28-4.01h1.8l-3.83 4.61 3.91 4.73h-1.93l-3.29-3.98zM774.37 158.77c-.64 0-1.23-.11-1.78-.32-.55-.22-1.03-.53-1.43-.95s-.72-.92-.94-1.52-.34-1.29-.34-2.07.11-1.45.34-2.06.54-1.11.94-1.52.88-.72 1.43-.94c.55-.21 1.15-.32 1.78-.32s1.25.11 1.8.32c.55.22 1.03.53 1.43.94s.72.92.95 1.52c.23.61.35 1.29.35 2.06s-.12 1.47-.35 2.07-.55 1.11-.95 1.52-.88.73-1.43.95-1.15.32-1.8.32m0-1.4q.63 0 1.17-.21t.93-.63c.26-.28.46-.64.61-1.07s.22-.94.22-1.53-.07-1.1-.22-1.53-.35-.79-.61-1.07q-.39-.42-.93-.63a3.2 3.2 0 0 0-1.17-.21c-.42 0-.8.07-1.15.21s-.65.35-.91.63-.46.64-.6 1.07-.22.94-.22 1.53.07 1.1.22 1.53.34.79.6 1.07.56.49.91.63.73.21 1.15.21M781.01 149.24h3.49c1.13 0 1.98.19 2.56.58s.859 1 .859 1.83c0 .55-.139.99-.409 1.32s-.681.57-1.211.71c1.33.22 2 .95 2 2.21 0 .48-.099.89-.289 1.23s-.461.62-.791.84c-.34.22-.739.37-1.219.47s-.99.14-1.54.14H781v-9.34zm1.58 1.35v2.54h1.759c.6 0 1.08-.11 1.45-.32.37-.22.55-.53.55-.94 0-.49-.16-.83-.49-1.01-.32-.18-.79-.27-1.39-.27h-1.889zm0 3.8v2.84h1.85c.34 0 .639-.02.909-.06s.5-.12.7-.22c.2-.11.351-.25.461-.43s.159-.4.159-.67c0-.54-.179-.92-.549-1.13s-.93-.32-1.68-.32h-1.85z"/></g><path fill="#D8006C" d="M79.36 145.7h7.67v1.53h-5.96v3.64h2.34c1.44 0 2.54.29 3.31.88s1.15 1.54 1.15 2.84c0 .72-.11 1.33-.34 1.84s-.55.92-.96 1.24-.91.56-1.48.7c-.58.14-1.21.22-1.91.22h-3.82zm1.71 6.7v4.66h2.11c.43 0 .82-.04 1.18-.12.35-.08.66-.21.92-.41.26-.19.46-.44.6-.74s.22-.68.22-1.13c0-.77-.23-1.34-.7-1.71s-1.15-.56-2.03-.56h-2.29zM97.79 157.8c-.13.1-.3.2-.5.3-.2.11-.44.21-.71.31-.28.1-.59.18-.94.25-.35.06-.75.1-1.18.1-1.57 0-2.77-.43-3.58-1.28-.82-.85-1.22-2.05-1.22-3.58 0-.76.11-1.43.33-2.03s.53-1.11.93-1.52.87-.73 1.41-.95q.825-.33 1.77-.33c.63 0 1.25.11 1.78.34s.96.57 1.3 1.01c.34.45.58 1 .7 1.65s.12 1.42 0 2.29h-6.59c.06 1.01.37 1.76.92 2.26q.825.75 2.34.75c.66 0 1.22-.11 1.67-.31.46-.21.84-.42 1.15-.64l.41 1.39zm-3.73-7.33c-.7 0-1.29.21-1.78.63s-.8 1.06-.94 1.91h5.02c.02-.43-.02-.81-.13-1.12s-.26-.58-.47-.79c-.2-.21-.45-.37-.75-.47q-.435-.15-.96-.15zM104.8 158.77c-.72 0-1.34-.17-1.86-.5s-.94-.8-1.25-1.39v4.9h-1.58v-12.53h1.4l.14 1.84q.465-.915 1.26-1.47c.53-.37 1.18-.55 1.96-.55q.81 0 1.56.3c.5.2.94.5 1.31.9.38.4.68.91.9 1.51s.33 1.32.33 2.13-.11 1.55-.34 2.15-.53 1.11-.92 1.51c-.38.4-.83.7-1.33.9s-1.03.3-1.58.3m-.23-1.4c.83 0 1.5-.29 2.01-.86s.77-1.43.77-2.59-.26-1.99-.77-2.57-1.18-.88-2.01-.88c-.41 0-.79.07-1.14.22s-.66.36-.92.64-.46.64-.61 1.07-.22.94-.22 1.52.07 1.08.22 1.52c.15.43.35.79.61 1.08s.56.5.92.64.73.21 1.14.21M118.58 157.8c-.13.1-.3.2-.5.3-.2.11-.44.21-.71.31-.28.1-.59.18-.94.25-.35.06-.75.1-1.18.1-1.57 0-2.77-.43-3.58-1.28-.82-.85-1.22-2.05-1.22-3.58 0-.76.11-1.43.33-2.03s.53-1.11.93-1.52.87-.73 1.41-.95q.825-.33 1.77-.33c.63 0 1.25.11 1.78.34s.96.57 1.3 1.01c.34.45.58 1 .7 1.65s.12 1.42 0 2.29h-6.59c.06 1.01.37 1.76.92 2.26q.825.75 2.34.75c.66 0 1.22-.11 1.67-.31.46-.21.84-.42 1.15-.64l.41 1.39zm-5.71-9.93c-.3 0-.55-.1-.74-.29a.97.97 0 0 1-.29-.7c0-.3.1-.55.29-.75s.44-.3.74-.3.56.1.75.3.28.45.28.75c0 .28-.09.51-.28.7s-.44.29-.75.29m1.98 2.59c-.7 0-1.29.21-1.78.63s-.8 1.06-.94 1.91h5.02c.02-.43-.02-.81-.13-1.12s-.26-.58-.47-.79c-.2-.21-.45-.37-.75-.47q-.435-.15-.96-.15zm1.91-2.59c-.31 0-.56-.1-.75-.29a.96.96 0 0 1-.28-.7c0-.3.09-.55.28-.75s.43-.3.75-.3.56.1.75.3.28.45.28.75c0 .28-.09.51-.28.7s-.44.29-.75.29M122.35 150.77v7.81h-1.46v-9.34h2.43l2.81 6.28 2.92-6.28h2.32v9.34h-1.57v-7.81l-3.17 6.77h-1.26zM139.84 156.17c-.2.85-.53 1.48-.98 1.88s-1.08.59-1.88.57l-.23-1.44c.83.04 1.36-.41 1.6-1.33.18-.7.3-1.58.35-2.64s.08-2.38.08-3.97h6.08v9.34h-1.58v-7.99h-3.01c-.01 1.19-.04 2.24-.1 3.17s-.17 1.73-.33 2.41M155.07 158.77c-.58 0-1.11-.1-1.61-.29s-.94-.47-1.31-.84-.69-.82-.93-1.36-.38-1.15-.43-1.84h-1.57v4.14h-1.58v-9.34h1.58v3.85h1.6c.07-.65.23-1.22.47-1.72q.36-.75.93-1.26t1.29-.78c.48-.18 1-.27 1.57-.27.62 0 1.2.11 1.73.32.53.22.99.53 1.38.94s.7.92.92 1.52c.22.61.33 1.29.33 2.06s-.11 1.47-.33 2.07-.53 1.11-.92 1.52-.85.73-1.38.95-1.1.32-1.73.32zm0-1.4c.4 0 .76-.07 1.09-.21s.61-.35.85-.63.43-.64.57-1.07q.21-.645.21-1.53t-.21-1.53c-.14-.43-.33-.79-.57-1.07a2.36 2.36 0 0 0-.85-.63c-.33-.14-.69-.21-1.09-.21s-.74.07-1.07.21-.62.35-.85.63c-.24.28-.43.64-.57 1.07q-.21.645-.21 1.53t.21 1.53c.14.43.33.79.57 1.07s.52.49.85.63.69.21 1.07.21M165.76 158.77c-.67 0-1.29-.11-1.85-.33a3.76 3.76 0 0 1-1.45-1.02c-.41-.46-.73-1.03-.95-1.73-.23-.7-.34-1.52-.34-2.47 0-.78.02-1.52.07-2.23s.15-1.36.31-1.96.4-1.14.73-1.63c.32-.49.76-.9 1.3-1.23.61-.35 1.25-.55 1.92-.61s1.32-.1 1.97-.12c.47-.04.85-.1 1.13-.18s.55-.2.79-.34l.25 1.48c-.24.17-.53.28-.88.34s-.73.11-1.13.16c-.35.03-.68.04-.99.05s-.61.03-.89.06-.55.08-.81.13c-.26.06-.5.15-.73.27-.61.34-1.04.83-1.28 1.49-.24.65-.39 1.43-.45 2.33.31-.68.76-1.21 1.35-1.57s1.31-.54 2.18-.54c.59 0 1.14.11 1.65.32s.95.52 1.33.93.67.91.89 1.5.32 1.28.32 2.04-.11 1.47-.34 2.07-.54 1.11-.94 1.52-.86.73-1.4.95-1.13.32-1.76.32m-.04-1.4c.41 0 .79-.07 1.13-.21s.65-.35.9-.63.45-.64.59-1.07.22-.94.22-1.53-.07-1.1-.22-1.53c-.14-.43-.35-.79-.6-1.07q-.39-.42-.93-.63a3.2 3.2 0 0 0-1.17-.21c-.83 0-1.52.28-2.06.83s-.82 1.41-.82 2.56c0 .6.07 1.12.23 1.56.15.44.35.8.61 1.09s.57.5.93.64.76.21 1.19.21zM172.37 149.24h1.58v3.26h1.55c1.18 0 2.1.23 2.77.7s1.01 1.22 1.01 2.27c0 .54-.1 1.01-.29 1.4-.19.4-.46.72-.81.97s-.76.44-1.24.56-1 .18-1.57.18h-3.01v-9.34zm1.58 4.61v3.38h1.42c.68 0 1.24-.13 1.67-.39s.64-.69.64-1.29-.19-1.05-.58-1.31c-.38-.26-.92-.4-1.6-.4h-1.55zm8.26 4.73h-1.58v-9.34h1.58zM192.46 157.8c-.13.1-.3.2-.5.3-.2.11-.44.21-.71.31-.28.1-.59.18-.94.25-.35.06-.75.1-1.18.1-1.57 0-2.77-.43-3.58-1.28-.82-.85-1.22-2.05-1.22-3.58 0-.76.11-1.43.33-2.03s.53-1.11.93-1.52.87-.73 1.41-.95q.825-.33 1.77-.33c.63 0 1.25.11 1.78.34s.96.57 1.3 1.01c.34.45.58 1 .7 1.65s.12 1.42 0 2.29h-6.59c.06 1.01.37 1.76.92 2.26q.825.75 2.34.75c.66 0 1.22-.11 1.67-.31.46-.21.84-.42 1.15-.64l.41 1.39zm-3.73-7.33c-.7 0-1.29.21-1.78.63s-.8 1.06-.94 1.91h5.02c.02-.43-.02-.81-.13-1.12s-.26-.58-.47-.79c-.2-.21-.45-.37-.75-.47q-.435-.15-.96-.15zM204.19 150.59h-4.32v7.99h-1.58v-9.34h7.49v9.34h-1.58v-7.99zM213.25 158.77c-.72 0-1.34-.17-1.86-.5s-.94-.8-1.25-1.39v4.9h-1.58v-12.53h1.4l.14 1.84q.465-.915 1.26-1.47c.53-.37 1.18-.55 1.96-.55q.81 0 1.56.3c.5.2.94.5 1.31.9.38.4.68.91.9 1.51s.33 1.32.33 2.13-.11 1.55-.34 2.15-.53 1.11-.92 1.51c-.38.4-.83.7-1.33.9s-1.03.3-1.58.3m-.23-1.4c.83 0 1.5-.29 2.01-.86s.77-1.43.77-2.59-.26-1.99-.77-2.57-1.18-.88-2.01-.88c-.41 0-.79.07-1.14.22s-.66.36-.92.64-.46.64-.61 1.07-.22.94-.22 1.52.07 1.08.22 1.52c.15.43.35.79.61 1.08s.56.5.92.64.73.21 1.14.21M219.56 149.24h1.58v7.18l4.99-7.18h1.6v9.34h-1.58v-7.16l-4.97 7.16h-1.62zM232.81 158.77c-.68 0-1.28-.07-1.79-.22s-.92-.33-1.21-.54l.49-1.36c.31.19.67.36 1.08.5s.88.22 1.4.22c.32 0 .62-.03.9-.08s.52-.14.73-.25.37-.27.49-.45c.12-.19.18-.42.18-.7 0-.53-.18-.91-.53-1.13s-.91-.33-1.66-.33h-1.24v-1.28h1.3c1.24 0 1.85-.46 1.85-1.38q0-.36-.15-.6c-.1-.16-.24-.29-.41-.4-.17-.1-.38-.17-.6-.22s-.47-.06-.72-.06c-.53 0-.99.07-1.4.22-.4.14-.78.32-1.12.52l-.38-1.31q.45-.3 1.2-.57c.5-.17 1.08-.26 1.75-.26 1.09 0 1.91.22 2.47.65.55.43.83 1.06.83 1.87 0 .62-.17 1.11-.5 1.46-.34.35-.79.58-1.37.68 1.49.18 2.23.89 2.23 2.14 0 .53-.1.98-.31 1.34-.21.37-.49.67-.85.9-.35.23-.76.4-1.22.5s-.93.15-1.42.15zM244.98 154.44h-4.52v4.14h-1.58v-9.34h1.58v3.85h4.52v-3.85h1.58v9.34h-1.58zM254.7 157.04c-.13.21-.29.41-.48.62s-.41.4-.67.56-.56.29-.89.4c-.34.1-.71.15-1.12.15-.84 0-1.52-.24-2.03-.71s-.77-1.16-.77-2.04c0-2.03 1.5-3.04 4.5-3.04h1.37v-.7c0-.65-.17-1.11-.51-1.39s-.91-.41-1.7-.41c-.61 0-1.15.08-1.63.23s-.88.34-1.23.54l-.38-1.31c.32-.2.77-.4 1.35-.59s1.24-.28 2-.28c1.2 0 2.11.25 2.74.74s.95 1.25.95 2.27v5.37c0 .14.01.28.02.42 0 .14.02.28.03.41s.02.23.04.32h-1.46c-.02-.17-.05-.41-.08-.71-.03-.31-.04-.57-.04-.8v-.04zm-2.81.32c.34 0 .65-.05.93-.14.28-.1.53-.22.76-.38.22-.16.42-.32.59-.5s.32-.36.44-.54v-1.56h-1.22c-1.13 0-1.92.15-2.38.44s-.68.72-.68 1.26c0 .42.13.77.38 1.03s.65.4 1.19.4zM261.27 154.61h-.83v3.98h-1.58v-9.34h1.58v4.01h.9l3.28-4.01h1.8l-3.83 4.61 3.91 4.73h-1.93l-3.29-3.98zM268.2 149.24h1.58v7.18l4.99-7.18h1.6v9.34h-1.58v-7.16l-4.97 7.16h-1.62zM288.57 150.59h-4.32v7.99h-1.58v-9.34h7.49v9.34h-1.58v-7.99zM296.76 158.77c-.64 0-1.23-.11-1.78-.32-.55-.22-1.03-.53-1.43-.95s-.72-.92-.94-1.52-.34-1.29-.34-2.07.11-1.45.34-2.06.54-1.11.94-1.52.88-.72 1.43-.94c.55-.21 1.15-.32 1.78-.32s1.25.11 1.8.32c.55.22 1.03.53 1.43.94s.72.92.95 1.52c.23.61.35 1.29.35 2.06s-.12 1.47-.35 2.07-.55 1.11-.95 1.52-.88.73-1.43.95-1.15.32-1.8.32m0-1.4q.63 0 1.17-.21t.93-.63c.26-.28.46-.64.61-1.07s.22-.94.22-1.53-.07-1.1-.22-1.53-.35-.79-.61-1.07q-.39-.42-.93-.63a3.2 3.2 0 0 0-1.17-.21c-.42 0-.8.07-1.15.21s-.65.35-.91.63-.46.64-.6 1.07-.22.94-.22 1.53.07 1.1.22 1.53.34.79.6 1.07.56.49.91.63.73.21 1.15.21M306.93 149.24h1.58v7.18l4.99-7.18h1.6v9.34h-1.58v-7.16l-4.97 7.16h-1.62zM321.89 158.77c-.68 0-1.31-.11-1.89-.32-.58-.22-1.07-.53-1.48-.95s-.73-.92-.96-1.51-.34-1.28-.34-2.04.12-1.44.35-2.04c.23-.61.56-1.12.98-1.54s.92-.74 1.49-.96q.855-.33 1.86-.33c.56 0 1.09.06 1.58.18s.89.3 1.21.54l-.4 1.37c-.3-.17-.64-.32-1.03-.47-.38-.14-.83-.22-1.35-.22-.94 0-1.68.29-2.24.87s-.84 1.45-.84 2.62c0 1.09.28 1.94.83 2.53s1.3.88 2.23.88c.46 0 .87-.06 1.24-.18s.73-.28 1.06-.47l.38 1.3c-.34.24-.72.42-1.15.55s-.94.2-1.53.2zM330.42 150.59v7.99h-1.58v-7.99H326v-1.35h7.33v1.35h-2.9099999999999997M338.9 158.77c-.64 0-1.23-.11-1.78-.32-.55-.22-1.03-.53-1.43-.95s-.72-.92-.94-1.52-.34-1.29-.34-2.07.11-1.45.34-2.06.54-1.11.94-1.52.88-.72 1.43-.94c.55-.21 1.15-.32 1.78-.32s1.25.11 1.8.32c.55.22 1.03.53 1.43.94s.72.92.95 1.52c.23.61.35 1.29.35 2.06s-.12 1.47-.35 2.07-.55 1.11-.95 1.52-.88.73-1.43.95-1.15.32-1.8.32m0-1.4q.63 0 1.17-.21t.93-.63c.26-.28.46-.64.61-1.07s.22-.94.22-1.53-.07-1.1-.22-1.53-.35-.79-.61-1.07q-.39-.42-.93-.63a3.2 3.2 0 0 0-1.17-.21c-.42 0-.8.07-1.15.21s-.65.35-.91.63-.46.64-.6 1.07-.22.94-.22 1.53.07 1.1.22 1.53.34.79.6 1.07.56.49.91.63.73.21 1.15.21M350.24 158.77c-.72 0-1.34-.17-1.86-.5s-.94-.8-1.25-1.39v4.9h-1.58v-12.53h1.4l.14 1.84q.465-.915 1.26-1.47c.53-.37 1.18-.55 1.96-.55q.81 0 1.56.3c.5.2.94.5 1.31.9.38.4.68.91.9 1.51s.33 1.32.33 2.13-.11 1.55-.34 2.15-.53 1.11-.92 1.51c-.38.4-.83.7-1.33.9s-1.03.3-1.58.3m-.23-1.4c.83 0 1.5-.29 2.01-.86s.77-1.43.77-2.59-.26-1.99-.77-2.57-1.18-.88-2.01-.88c-.41 0-.79.07-1.14.22s-.66.36-.92.64-.46.64-.61 1.07-.22.94-.22 1.52.07 1.08.22 1.52c.15.43.35.79.61 1.08s.56.5.92.64.73.21 1.14.21M356.56 149.24h1.58v7.18l4.99-7.18h1.6v9.34h-1.58v-7.16l-4.97 7.16h-1.62zM367.5 149.24h1.58v7.18l4.99-7.18h1.6v9.34h-1.58v-7.16l-4.97 7.16h-1.62z"/></g><defs><clipPath id="a"><path fill="#fff" d="M0 0h898.86v192H0z"/></clipPath></defs></svg>