<svg xmlns="http://www.w3.org/2000/svg" width="899" height="258" fill="none"><g clip-path="url(#a)"><path fill="#fff" d="M898.98 0h-899v257.79h899z"/><path stroke="#3B4856" stroke-linecap="round" stroke-linejoin="round" stroke-width="1.5" d="M38.66 160.35v31.08M94.06 160.35v31.08M149.45 160.35v31.08M204.84 160.35v31.08M260.24 160.35v31.08M315.63 160.35v31.08M371.02 160.35v31.08M426.42 160.35v31.08M481.81 160.35v31.08M537.2 160.35v31.08" opacity=".4"/><path stroke="#3B4856" stroke-miterlimit="10" d="M16.4 33.51h50.35v39.54H11.4V38.51c0-2.76 2.24-5 5-5ZM232.79 33.51h-55.35v39.54h55.35zM122.1 33.51H66.75v39.54h55.35z" opacity=".25"/><path stroke="#3B4856" stroke-miterlimit="10" d="M177.45 33.51H122.1v39.54h55.35zM288.14 33.51h-55.35v39.54h55.35zM343.49 33.51h-55.35v39.54h55.35z" opacity=".25"/><path stroke="#3B4856" stroke-miterlimit="10" d="M398.84 33.51h-55.35v39.54h55.35z" opacity=".25"/><path stroke="#3B4856" stroke-miterlimit="10" d="M454.18 33.51h-55.35v39.54h55.35z" opacity=".25"/><path stroke="#3B4856" stroke-miterlimit="10" d="M509.53 33.51h-55.35v39.54h55.35zM66.75 73.04H11.4v39.54h55.35zM232.79 73.04h-55.35v39.54h55.35zM122.1 73.04H66.75v39.54h55.35z" opacity=".25"/><path stroke="#3B4856" stroke-miterlimit="10" d="M177.45 73.04H122.1v39.54h55.35zM288.14 73.04h-55.35v39.54h55.35zM343.49 73.04h-55.35v39.54h55.35z" opacity=".25"/><path stroke="#3B4856" stroke-miterlimit="10" d="M398.84 73.04h-55.35v39.54h55.35z" opacity=".25"/><path stroke="#3B4856" stroke-miterlimit="10" d="M454.18 73.04h-55.35v39.54h55.35z" opacity=".25"/><path stroke="#3B4856" stroke-miterlimit="10" d="M509.53 73.04h-55.35v39.54h55.35zM11.4 112.58h55.35v39.54H16.4c-2.76 0-5-2.24-5-5zM232.79 112.58h-55.35v39.54h55.35zM122.1 112.58H66.75v39.54h55.35z" opacity=".25"/><path stroke="#3B4856" stroke-miterlimit="10" d="M177.45 112.58H122.1v39.54h55.35zM288.14 112.58h-55.35v39.54h55.35zM343.49 112.58h-55.35v39.54h55.35z" opacity=".25"/><path stroke="#3B4856" stroke-miterlimit="10" d="M398.84 112.58h-55.35v39.54h55.35z" opacity=".25"/><path stroke="#3B4856" stroke-miterlimit="10" d="M454.18 112.58h-55.35v39.54h55.35z" opacity=".25"/><path stroke="#3B4856" stroke-miterlimit="10" d="M509.53 112.58h-55.35v39.54h55.35zM509.53 33.51h50.35c2.76 0 5 2.24 5 5v34.54h-55.35z" opacity=".25"/><path stroke="#3B4856" stroke-miterlimit="10" d="M564.88 73.04h-55.35v39.54h55.35z" opacity=".25"/><path stroke="#3B4856" stroke-miterlimit="10" d="M509.53 112.58h55.35v34.54c0 2.76-2.24 5-5 5h-50.35z" opacity=".25"/><path fill="#3B4856" d="M759.38 144.47h-.34c0 .23-.23 1.13-.34 1.47-.11.11-1.02.11-1.47.11h-3.05c.45-.34 1.47-1.36 1.81-1.81 2.49-2.26 3.39-3.16 3.39-4.75 0-1.81-1.47-3.16-3.39-3.16s-2.94 1.58-2.94 3.05c0 .79.68.79.79.79.34 0 .79-.23.79-.79 0-.45-.34-.79-.79-.79h-.23c.34-1.13 1.13-1.81 2.26-1.81 1.36 0 2.26 1.13 2.26 2.6 0 1.36-.79 2.6-1.7 3.62l-3.28 3.62v.34h5.88l.34-2.49zM741.94 140.74h1.47c.34 0 .45 0 .45-.34 0-.23-.11-.23-.45-.23h-1.47l.56-2.37q.11-.23.11-.34c0-.23-.23-.45-.45-.45-.11 0-.45 0-.68.57l-.68 2.6h-1.47c-.34 0-.45 0-.45.34 0 .11.11.11.45.11h1.47l-1.02 4.29c-.11.57-.23.68-.23.9 0 .79.56 1.47 1.47 1.47 1.58 0 2.49-2.37 2.49-2.49s-.11-.11-.11-.11-.11 0-.11.11l-.11.34c-.34.79-1.13 1.92-2.03 1.92-.45 0-.56-.45-.56-.79v-.57l1.36-4.97zM751.41 142.78c.39 0 .79 0 .79-.45s-.41-.45-.79-.45h-5.37c-.39 0-.79 0-.79.45s.41.45.79.45zM703.82 103.31c.39 0 .79 0 .79-.45s-.41-.45-.79-.45h-5.37c-.39 0-.79 0-.79.45s.41.45.79.45zM694.34 101.27h1.47c.34 0 .45 0 .45-.34 0-.23-.11-.23-.45-.23h-1.47l.57-2.37q.11-.23.11-.34c0-.23-.23-.45-.45-.45-.11 0-.45 0-.68.57l-.68 2.6h-1.47c-.34 0-.45 0-.45.34 0 .11.11.11.45.11h1.47l-1.02 4.29c-.11.57-.23.68-.23.9 0 .79.57 1.47 1.47 1.47 1.58 0 2.49-2.37 2.49-2.49s-.11-.11-.11-.11-.11 0-.11.11l-.11.34c-.34.79-1.13 1.92-2.03 1.92-.45 0-.57-.45-.57-.79v-.57l1.36-4.97zM708.34 97.42q0-.34-.34-.34c-.34.45-1.24 1.02-2.82 1.02v.45c.34 0 1.13 0 2.03-.45v8.47c0 .57 0 .79-1.47.79h-.45v.45h5.09v-.57h-.45c-1.47 0-1.47-.23-1.47-.79v-9.04h-.11z"/><g style="mix-blend-mode:multiply"><path fill="#FFF9E5" d="M559.87 33.51H16.4a5 5 0 0 0-5 5v29.54a5 5 0 0 0 5 5h543.47a5 5 0 0 0 5-5V38.51a5 5 0 0 0-5-5"/><path stroke="#3B4856" stroke-linecap="round" stroke-linejoin="round" d="M559.87 33.51H16.4a5 5 0 0 0-5 5v29.54a5 5 0 0 0 5 5h543.47a5 5 0 0 0 5-5V38.51a5 5 0 0 0-5-5"/></g><g style="mix-blend-mode:multiply"><path fill="#FBE5F0" d="M559.88 73.04H71.75a5 5 0 0 0-5 5v29.54a5 5 0 0 0 5 5h488.13a5 5 0 0 0 5-5V78.04a5 5 0 0 0-5-5"/><path stroke="#3B4856" stroke-linecap="round" stroke-linejoin="round" d="M559.88 73.04H71.75a5 5 0 0 0-5 5v29.54a5 5 0 0 0 5 5h488.13a5 5 0 0 0 5-5V78.04a5 5 0 0 0-5-5"/></g><g style="mix-blend-mode:multiply"><path fill="#EAF4F9" d="M559.88 112.58H127.1a5 5 0 0 0-5 5v29.54a5 5 0 0 0 5 5h432.78a5 5 0 0 0 5-5v-29.54a5 5 0 0 0-5-5"/><path stroke="#3B4856" stroke-linecap="round" stroke-linejoin="round" d="M559.88 112.58H127.1a5 5 0 0 0-5 5v29.54a5 5 0 0 0 5 5h432.78a5 5 0 0 0 5-5v-29.54a5 5 0 0 0-5-5"/></g><path stroke="#3B4856" stroke-linecap="round" stroke-linejoin="round" stroke-width="2" d="M537.2 200.67v-9M39.07 200.67v-9M94.42 200.67v-9M149.77 200.67v-9M205.12 200.67v-9M260.46 200.67v-9M315.81 200.67v-9M371.16 200.67v-9M426.51 200.67v-9M481.85 200.67v-9"/><path stroke="#fff" stroke-linecap="round" stroke-linejoin="round" stroke-width="4" d="M581.11 92.81h46.35"/><path fill="#fff" d="m627.32 92.97-.02-.03.14-.13-.14-.14.02-.02.18.16z"/><path stroke="#D8006C" stroke-linecap="round" stroke-linejoin="round" d="M581.11 92.81h45.31"/><path fill="#D8006C" d="m623.1 96.9-.68-.73 3.61-3.36-3.61-3.36.68-.73 4.4 4.09z"/><path stroke="#fff" stroke-linecap="round" stroke-linejoin="round" stroke-width="4" d="M581.11 132.34h92.74"/><path fill="#fff" d="m673.72 132.51-.03-.03.14-.14-.14-.13.03-.03.17.16z"/><path stroke="#2A94EA" stroke-linecap="round" stroke-linejoin="round" d="M581.11 132.34h91.7"/><path fill="#2A94EA" d="m669.491 136.43-.68-.73 3.61-3.35-3.61-3.36.68-.73 4.4 4.09z"/><path stroke="#3B4856" stroke-linecap="round" stroke-miterlimit="10" stroke-width="2" d="M11.39 191.43H757.8"/><path fill="#3B4856" d="m751.18 199.61-1.37-1.46 7.23-6.71-7.23-6.72 1.37-1.46 8.79 8.18zM643.54 86.34h2.38l3.42 10.74 3.44-10.78h2.09l-4.1 12.89h-3.02l-4.2-12.86zM661.08 99.17c-.03-.15-.05-.36-.08-.61s-.05-.49-.07-.72c-.13.19-.29.38-.47.56s-.39.34-.63.49-.51.26-.82.35c-.31.08-.64.13-1.02.13-.4 0-.77-.05-1.12-.17-.36-.11-.66-.28-.93-.51a2.4 2.4 0 0 1-.62-.84c-.15-.33-.23-.73-.23-1.19 0-1.01.37-1.78 1.11-2.32q1.11-.81 3.45-.81h1.17v-.47c0-.61-.17-1.03-.49-1.27-.32-.23-.82-.35-1.48-.35-.58 0-1.1.08-1.57.24q-.705.24-1.29.54l-.46-1.73q.57-.3 1.5-.57c.62-.18 1.3-.27 2.06-.27 1.24 0 2.2.25 2.88.76.69.51 1.03 1.33 1.03 2.46l.02 4.79v.37c0 .14.01.28.02.42 0 .14.01.28.02.4 0 .12.01.23.03.31h-2.03zm-2.47-1.48c.29 0 .54-.04.77-.13s.43-.19.62-.32.35-.27.49-.43.25-.31.35-.47v-1.42h-1.07c-.9 0-1.54.14-1.92.4q-.57.39-.57 1.08c0 .4.12.71.34.94.23.23.56.34.99.34zM667.46 86.26l.04 12.89h-2.18l-.04-12.88h2.18zM674.74 98.82c-.49.32-1.13.49-1.92.49-.89 0-1.61-.25-2.17-.76q-.84-.765-.84-2.31l-.02-6.44H672l.02 6.38q0 .39.12.66c.08.17.19.31.33.41s.3.17.49.22c.19.04.38.06.58.06.56 0 1.03-.12 1.39-.37s.67-.56.91-.96l-.02-6.42h2.2l.03 9.33h-2l-.15-1.49h-.04c-.25.47-.62.87-1.11 1.19zM688.4 98.36c-.06.05-.18.12-.35.22s-.4.2-.68.3q-.42.15-1.02.27c-.4.08-.85.12-1.37.12-1.72 0-3-.41-3.85-1.26s-1.28-2.04-1.28-3.58c0-.76.11-1.43.33-2.04.23-.6.54-1.11.95-1.52.41-.42.9-.74 1.46-.96.57-.22 1.2-.34 1.88-.34.7 0 1.33.11 1.89.34s1.03.57 1.4 1.02c.37.46.62 1.02.77 1.71.15.68.15 1.48 0 2.38l-6.43.02c.09.82.37 1.44.84 1.85s1.18.61 2.12.61c.38 0 .74-.04 1.05-.1.32-.07.59-.15.83-.24.23-.09.43-.18.59-.27s.28-.17.35-.23l.49 1.72zm-3.91-7.1c-.62 0-1.14.18-1.54.54s-.67.9-.8 1.62h4.3c.02-.73-.15-1.27-.5-1.63q-.54-.54-1.47-.54zM581.12 46.8h2.38l3.42 10.75 3.44-10.78h2.09l-4.1 12.89h-3.02l-4.2-12.87zM598.66 59.63c-.03-.16-.05-.36-.08-.61s-.05-.49-.07-.72c-.13.19-.29.38-.47.56s-.39.34-.63.49c-.24.14-.51.26-.82.34-.31.09-.64.13-1.02.13-.4 0-.77-.05-1.12-.17-.36-.11-.66-.28-.93-.51a2.4 2.4 0 0 1-.62-.84c-.15-.34-.23-.73-.23-1.19 0-1.01.37-1.78 1.11-2.32q1.11-.81 3.45-.81h1.17v-.47c0-.61-.17-1.04-.49-1.27s-.82-.35-1.48-.35c-.58 0-1.1.08-1.57.24q-.705.24-1.29.54l-.46-1.73q.57-.315 1.5-.57c.62-.18 1.3-.27 2.06-.27 1.24 0 2.2.25 2.88.76s1.03 1.33 1.03 2.45l.02 4.79v.37c0 .14.01.28.02.42s.01.28.02.4c0 .13.01.23.03.31h-2.03zm-2.47-1.48c.29 0 .54-.04.77-.13.23-.08.43-.19.62-.32.19-.12.35-.27.49-.43.14-.15.25-.31.35-.47v-1.42h-1.07c-.9 0-1.54.14-1.92.4q-.57.39-.57 1.08c0 .4.12.71.34.94.23.23.56.34.99.34zM605.04 46.72l.04 12.89h-2.18l-.04-12.88h2.18zM612.32 59.28c-.49.32-1.13.49-1.92.49-.89 0-1.61-.25-2.17-.76q-.84-.765-.84-2.31l-.02-6.44h2.21l.02 6.38c0 .27.04.48.12.66.08.17.19.31.33.41s.3.17.49.21.38.06.58.06c.56 0 1.03-.12 1.39-.37.37-.24.67-.56.91-.96l-.02-6.42h2.2l.03 9.33h-2l-.15-1.49h-.04c-.25.47-.62.87-1.11 1.19zM625.98 58.83c-.06.05-.18.12-.35.21-.17.1-.4.2-.68.3q-.42.15-1.02.27c-.4.08-.85.12-1.37.12-1.72 0-3-.42-3.85-1.26-.85-.85-1.28-2.04-1.28-3.58q0-1.14.33-2.04c.23-.6.54-1.11.95-1.53s.9-.73 1.46-.96c.57-.22 1.2-.34 1.88-.34.7 0 1.33.11 1.89.34.56.22 1.03.56 1.4 1.02s.62 1.03.77 1.71c.15.69.15 1.48 0 2.38l-6.43.02c.09.82.37 1.44.84 1.85s1.18.61 2.12.61c.38 0 .74-.04 1.05-.1.32-.07.59-.15.83-.24.23-.09.43-.18.59-.28.16-.09.28-.17.35-.23l.49 1.72zm-3.91-7.1c-.62 0-1.14.18-1.54.54s-.67.9-.8 1.62l4.3-.02c.02-.72-.15-1.26-.5-1.62q-.54-.54-1.47-.54zM691.14 125.88h2.38l3.42 10.75 3.44-10.78h2.09l-4.1 12.89h-3.02l-4.2-12.86zM708.679 138.7c-.03-.16-.05-.36-.08-.61s-.05-.49-.07-.72c-.13.19-.29.38-.47.56s-.39.34-.63.49-.51.26-.82.34-.64.13-1.02.13c-.4 0-.77-.05-1.12-.17-.36-.11-.66-.28-.93-.51a2.4 2.4 0 0 1-.62-.84c-.15-.33-.23-.73-.23-1.19 0-1.01.37-1.78 1.11-2.32q1.11-.81 3.45-.81h1.17v-.47c0-.61-.17-1.03-.49-1.27-.32-.23-.82-.35-1.48-.35-.58 0-1.1.08-1.57.24q-.705.24-1.29.54l-.46-1.73c.38-.2.88-.4 1.5-.57.62-.18 1.3-.27 2.06-.27 1.24 0 2.2.25 2.88.76.69.51 1.03 1.33 1.03 2.45l.02 4.79v.37c0 .14.01.28.02.42 0 .14.01.28.02.4 0 .13.01.23.03.31h-2.03zm-2.47-1.48c.29 0 .54-.04.77-.13.23-.08.43-.19.62-.32s.35-.27.49-.43.25-.31.35-.47v-1.42h-1.07c-.9 0-1.54.14-1.92.4q-.57.39-.57 1.08c0 .4.12.71.34.94.23.23.56.34.99.34zM715.06 125.8l.04 12.89h-2.18l-.04-12.88h2.18zM722.34 138.35c-.49.32-1.13.49-1.92.49-.89 0-1.61-.25-2.17-.76q-.84-.765-.84-2.31l-.02-6.44h2.21l.02 6.38q0 .39.12.66c.08.17.19.31.33.41s.3.17.49.22c.19.04.38.06.58.06.56 0 1.03-.12 1.39-.37.37-.24.67-.56.91-.96l-.02-6.42h2.2l.03 9.33h-2l-.15-1.49h-.04c-.25.47-.62.87-1.11 1.19zM736 137.9c-.06.05-.18.12-.35.22s-.4.2-.68.3q-.42.15-1.02.27c-.4.08-.85.12-1.37.12-1.72 0-3-.42-3.85-1.26s-1.28-2.04-1.28-3.58c0-.76.11-1.43.33-2.04.23-.6.54-1.11.95-1.52.41-.42.9-.74 1.46-.96.57-.22 1.2-.34 1.88-.34.7 0 1.33.11 1.89.34s1.03.57 1.4 1.02c.37.46.62 1.02.77 1.71.15.68.15 1.48 0 2.38l-6.43.02c.09.82.37 1.44.84 1.85s1.18.61 2.12.61c.38 0 .74-.04 1.05-.1.32-.07.59-.15.83-.24.23-.09.43-.18.59-.27s.28-.17.35-.23l.49 1.72zm-3.91-7.1c-.62 0-1.14.18-1.54.54s-.67.9-.8 1.62h4.3c.02-.73-.15-1.27-.5-1.63q-.54-.54-1.47-.54zM24.59 60.22v-1.67c1.1-.88 2.04-1.67 2.84-2.36s1.45-1.33 1.97-1.9c.52-.58.91-1.13 1.16-1.65s.37-1.06.37-1.63c0-.73-.23-1.32-.7-1.75-.46-.44-1.15-.65-2.04-.65-.59 0-1.15.11-1.69.33s-1.02.5-1.44.85l-.2-1.69c.41-.3.91-.54 1.5-.7s1.26-.25 1.99-.25c.7 0 1.31.09 1.84.26.53.18.97.43 1.33.75s.64.71.82 1.17c.19.46.28.96.29 1.51 0 .72-.14 1.4-.43 2.04s-.71 1.28-1.25 1.9-1.2 1.25-1.97 1.89c-.78.64-1.65 1.31-2.62 2.03l6.41-.02v1.53l-8.17.03zM38.7 60.35c-.61 0-1.18-.12-1.7-.38q-.78-.39-1.35-1.2c-.38-.54-.68-1.23-.89-2.07-.21-.83-.32-1.82-.33-2.98 0-1.15.1-2.15.3-2.98.21-.84.5-1.52.88-2.05s.83-.93 1.35-1.19 1.09-.39 1.7-.39 1.18.12 1.69.37c.52.25.96.64 1.34 1.18.37.53.67 1.21.88 2.04q.315 1.245.33 2.97c.01 1.15-.1 2.14-.3 2.98-.21.83-.5 1.53-.87 2.08s-.81.96-1.33 1.23a3.6 3.6 0 0 1-1.69.4zm-.02-1.42q.615 0 1.08-.27c.31-.18.57-.48.79-.88.22-.41.38-.95.49-1.61.11-.67.17-1.48.16-2.44 0-.96-.06-1.77-.17-2.44s-.27-1.2-.49-1.61-.48-.7-.79-.88q-.465-.27-1.08-.27c-.41 0-.77.09-1.09.27s-.59.48-.81.88-.39.95-.5 1.61c-.11.67-.17 1.48-.16 2.44 0 .96.06 1.77.18 2.44s.28 1.2.5 1.61.49.7.8.88c.32.18.68.27 1.09.27M48.71 60.32c-.61 0-1.18-.12-1.7-.38q-.78-.39-1.35-1.2c-.38-.54-.68-1.23-.89-2.07-.21-.83-.32-1.83-.33-2.98 0-1.15.1-2.14.3-2.98.21-.83.5-1.52.88-2.05s.82-.93 1.34-1.19 1.09-.39 1.7-.39 1.18.12 1.69.37c.52.25.96.64 1.34 1.18.37.53.67 1.21.88 2.04s.32 1.81.33 2.97-.1 2.15-.3 2.98c-.21.83-.5 1.53-.87 2.08s-.81.96-1.33 1.23a3.6 3.6 0 0 1-1.69.4zm-.02-1.42q.615 0 1.08-.27c.31-.18.57-.48.79-.88.22-.41.38-.95.49-1.61s.17-1.48.16-2.44c0-.96-.06-1.77-.17-2.44s-.27-1.2-.49-1.61-.48-.7-.79-.88q-.465-.27-1.08-.27c-.41 0-.77.09-1.09.27s-.59.48-.81.88-.39.95-.5 1.61c-.11.67-.17 1.48-.16 2.44 0 .96.06 1.77.18 2.44s.28 1.2.5 1.61.49.7.8.88c.32.18.68.27 1.09.27M79.79 60.22v-1.67c1.1-.88 2.04-1.67 2.84-2.36s1.45-1.33 1.97-1.9c.52-.58.91-1.13 1.16-1.65s.37-1.06.37-1.63c0-.73-.23-1.32-.7-1.75-.46-.44-1.15-.65-2.04-.65-.59 0-1.15.11-1.69.33s-1.02.5-1.44.85l-.2-1.69c.41-.3.91-.54 1.5-.7s1.26-.25 1.99-.25c.7 0 1.31.09 1.84.26.53.18.97.43 1.33.75s.64.71.82 1.17c.19.46.28.96.29 1.51 0 .72-.14 1.4-.43 2.04s-.71 1.28-1.25 1.9-1.2 1.25-1.97 1.89c-.78.64-1.65 1.31-2.62 2.03l6.41-.02v1.53l-8.17.03zM89.8 60.19v-1.67c1.1-.88 2.04-1.67 2.84-2.36s1.45-1.33 1.97-1.9c.52-.58.91-1.13 1.16-1.65s.37-1.07.37-1.63c0-.73-.23-1.31-.7-1.75-.46-.44-1.15-.65-2.04-.65-.59 0-1.15.11-1.69.33s-1.02.5-1.44.85l-.2-1.69c.41-.3.91-.54 1.5-.7s1.26-.25 1.99-.25c.7 0 1.31.09 1.84.27s.97.43 1.33.75.64.71.82 1.17c.19.46.28.96.29 1.51 0 .72-.14 1.4-.43 2.04s-.71 1.28-1.25 1.89c-.54.62-1.2 1.25-1.97 1.89-.78.64-1.65 1.31-2.62 2.02l6.41-.02v1.53l-8.17.03zM103.91 60.32c-.61 0-1.18-.12-1.7-.38q-.78-.39-1.35-1.2c-.38-.54-.68-1.23-.89-2.07-.21-.83-.32-1.83-.33-2.98 0-1.15.1-2.14.3-2.98.21-.83.5-1.52.88-2.05s.82-.93 1.34-1.19 1.09-.39 1.7-.39 1.18.12 1.69.37c.52.25.96.64 1.34 1.18.37.53.67 1.21.88 2.04s.32 1.81.33 2.97-.1 2.15-.3 2.98c-.21.83-.5 1.53-.87 2.08s-.81.96-1.33 1.23a3.6 3.6 0 0 1-1.69.4zm-.02-1.42q.615 0 1.08-.27c.31-.18.57-.48.79-.88.22-.41.38-.95.49-1.61s.17-1.48.16-2.44c0-.96-.06-1.77-.17-2.44s-.27-1.2-.49-1.61-.48-.7-.79-.88q-.465-.27-1.08-.27c-.41 0-.77.09-1.09.27s-.59.48-.81.88-.39.95-.5 1.61c-.11.67-.17 1.48-.16 2.44 0 .96.06 1.77.18 2.44s.28 1.2.5 1.61.49.7.8.88c.32.18.68.27 1.09.27M135 60.22v-1.67c1.1-.88 2.04-1.67 2.84-2.36s1.45-1.33 1.97-1.9c.52-.58.91-1.13 1.16-1.65s.37-1.06.37-1.63c0-.73-.23-1.32-.7-1.75-.46-.44-1.15-.65-2.04-.65-.59 0-1.15.11-1.69.33s-1.02.5-1.44.85l-.2-1.69c.41-.3.91-.54 1.5-.7s1.26-.25 1.99-.25c.7 0 1.31.09 1.84.26.53.18.97.43 1.33.75s.64.71.82 1.17c.19.46.28.96.29 1.51 0 .72-.14 1.4-.43 2.04s-.71 1.28-1.25 1.9-1.2 1.25-1.97 1.89c-.78.64-1.65 1.31-2.62 2.03l6.41-.02v1.53l-8.17.03zM149.18 60.17l-.04-10.85-3.55 2.73v-1.82l3.82-2.95h1.39l.04 12.88h-1.66zM158.47 60.32a8.6 8.6 0 0 1-1.96-.21c-.6-.14-1.08-.33-1.42-.57l.41-1.6c.35.24.76.46 1.23.64.47.19 1.05.28 1.74.28.9 0 1.6-.27 2.1-.79s.74-1.21.74-2.06c0-.9-.23-1.55-.68-1.96s-1.03-.61-1.74-.61c-.58 0-1.04.09-1.38.26s-.6.35-.76.54h-1.29l-.02-6.98 6.84-.02v1.53l-5.38.02v3.89c.25-.18.55-.34.9-.47s.79-.2 1.3-.2c.55 0 1.06.08 1.54.25.47.17.89.42 1.23.75.35.34.63.75.83 1.25.21.5.31 1.07.31 1.72s-.1 1.24-.3 1.78c-.2.53-.5.99-.89 1.37s-.86.67-1.43.89c-.56.21-1.21.32-1.93.32zM189.91 60.22v-1.67c1.1-.88 2.04-1.67 2.84-2.36s1.45-1.33 1.97-1.9c.52-.58.91-1.13 1.16-1.65s.37-1.06.37-1.63c0-.73-.23-1.32-.7-1.75-.46-.44-1.15-.65-2.04-.65-.59 0-1.15.11-1.69.33s-1.02.5-1.44.85l-.2-1.69c.41-.3.91-.54 1.5-.7s1.26-.25 1.99-.25c.7 0 1.31.09 1.84.26.53.18.97.43 1.33.75s.64.71.82 1.17c.19.46.28.96.29 1.51 0 .72-.14 1.4-.43 2.04s-.71 1.28-1.25 1.9-1.2 1.25-1.97 1.89c-.78.64-1.65 1.31-2.62 2.03l6.41-.02v1.53l-8.17.03zM203.27 60.35c-.72 0-1.37-.08-1.96-.25s-1.06-.41-1.42-.72l.43-1.58c.33.27.72.53 1.2.76.47.23 1.05.35 1.72.35q1.515 0 2.25-.63c.49-.42.74-1.01.73-1.78 0-.72-.22-1.28-.66-1.69s-1.13-.61-2.08-.61h-1.8v-1.47h1.87c.66 0 1.2-.2 1.61-.57s.62-.9.62-1.59c0-.62-.21-1.12-.63-1.47-.42-.36-1.06-.54-1.94-.53-.59 0-1.13.11-1.64.32s-.91.45-1.22.71l-.26-1.6c.84-.59 1.91-.89 3.2-.89.65 0 1.22.08 1.73.25.5.17.93.4 1.28.69s.61.65.8 1.06q.27.615.27 1.38a3.06 3.06 0 0 1-.65 1.93c-.2.24-.43.44-.7.59s-.55.26-.85.34c.36.06.71.17 1.04.35.33.17.62.39.88.66.25.27.46.59.61.97s.23.8.23 1.27c0 .55-.11 1.06-.33 1.52s-.53.86-.94 1.19q-.615.495-1.47.78c-.57.19-1.2.28-1.9.29zM214.03 60.32c-.61 0-1.18-.12-1.7-.38q-.78-.39-1.35-1.2c-.38-.54-.68-1.23-.89-2.07-.21-.83-.32-1.83-.33-2.98 0-1.15.1-2.14.3-2.98.21-.83.5-1.52.88-2.05s.82-.93 1.34-1.19 1.09-.39 1.7-.39 1.18.12 1.69.37c.52.25.96.64 1.34 1.18.37.53.67 1.21.88 2.04s.32 1.81.33 2.97-.1 2.15-.3 2.98c-.21.83-.5 1.53-.87 2.08s-.81.96-1.33 1.23a3.6 3.6 0 0 1-1.69.4zm-.02-1.42q.615 0 1.08-.27c.31-.18.57-.48.79-.88.22-.41.38-.95.49-1.61s.17-1.48.16-2.44c0-.96-.06-1.77-.17-2.44s-.27-1.2-.49-1.61-.48-.7-.79-.88q-.465-.27-1.08-.27c-.41 0-.77.09-1.09.27s-.59.48-.81.88-.39.95-.5 1.61c-.11.67-.17 1.48-.16 2.44 0 .96.06 1.77.18 2.44s.28 1.2.5 1.61.49.7.8.88c.32.18.68.27 1.09.27M245.12 60.22v-1.67c1.1-.88 2.04-1.67 2.84-2.36s1.45-1.33 1.97-1.9c.52-.58.91-1.13 1.16-1.65s.37-1.06.37-1.63c0-.73-.23-1.32-.7-1.75-.46-.44-1.15-.65-2.04-.65-.59 0-1.15.11-1.69.33s-1.02.5-1.44.85l-.2-1.69c.41-.3.91-.54 1.5-.7s1.26-.25 1.99-.25c.7 0 1.31.09 1.84.26.53.18.97.43 1.33.75s.64.71.82 1.17c.19.46.28.96.29 1.51 0 .72-.14 1.4-.43 2.04s-.71 1.28-1.25 1.9-1.2 1.25-1.97 1.89c-.78.64-1.65 1.31-2.62 2.03l6.41-.02v1.53l-8.17.03zM258.47 60.35c-.72 0-1.37-.08-1.96-.25s-1.06-.41-1.42-.72l.43-1.58c.33.27.72.53 1.2.76.47.23 1.05.35 1.72.35q1.515 0 2.25-.63c.49-.42.74-1.01.73-1.78 0-.72-.22-1.28-.66-1.69s-1.13-.61-2.08-.61h-1.8v-1.47h1.87c.66 0 1.2-.2 1.61-.57s.62-.9.62-1.59c0-.62-.21-1.12-.63-1.47-.42-.36-1.06-.54-1.94-.53-.59 0-1.13.11-1.64.32s-.91.45-1.22.71l-.26-1.6c.84-.59 1.91-.89 3.2-.89.65 0 1.22.08 1.73.25.5.17.93.4 1.28.69s.61.65.8 1.06q.27.615.27 1.38a3.06 3.06 0 0 1-.65 1.93c-.2.24-.43.44-.7.59s-.55.26-.85.34c.36.06.71.17 1.04.35.33.17.62.39.88.66.25.27.46.59.61.97s.23.8.23 1.27c0 .55-.11 1.06-.33 1.52s-.53.86-.94 1.19q-.615.495-1.47.78c-.57.19-1.2.28-1.9.29zM268.59 60.32a8.6 8.6 0 0 1-1.96-.21c-.6-.14-1.08-.33-1.42-.57l.41-1.6c.35.24.76.46 1.23.64.47.19 1.05.28 1.74.28.9 0 1.6-.27 2.1-.79s.74-1.21.74-2.06c0-.9-.23-1.55-.68-1.96s-1.03-.61-1.74-.61c-.58 0-1.04.09-1.38.26s-.6.35-.76.54h-1.29l-.02-6.98 6.84-.02v1.53l-5.38.02v3.89c.25-.18.55-.34.9-.47s.79-.2 1.3-.2c.55 0 1.06.08 1.54.25.47.17.89.42 1.23.75.35.34.63.75.83 1.25.21.5.31 1.07.31 1.72s-.1 1.24-.3 1.78c-.2.53-.5.99-.89 1.37s-.86.67-1.43.89c-.56.21-1.21.32-1.93.32zM300.02 60.22v-1.67c1.1-.88 2.04-1.67 2.84-2.36s1.45-1.33 1.97-1.9c.52-.58.91-1.13 1.16-1.65s.37-1.06.37-1.63c0-.73-.23-1.32-.7-1.75-.46-.44-1.15-.65-2.04-.65-.59 0-1.15.11-1.69.33s-1.02.5-1.44.85l-.2-1.69c.41-.3.91-.54 1.5-.7s1.26-.25 1.99-.25c.7 0 1.31.09 1.84.26.53.18.97.43 1.33.75s.64.71.82 1.17c.19.46.28.96.29 1.51 0 .72-.14 1.4-.43 2.04s-.71 1.28-1.25 1.9-1.2 1.25-1.97 1.89c-.78.64-1.65 1.31-2.62 2.03l6.41-.02v1.53l-8.17.03zM310.03 60.19v-1.67c1.1-.88 2.04-1.67 2.84-2.36s1.45-1.33 1.97-1.9c.52-.58.91-1.13 1.16-1.65s.37-1.07.37-1.63c0-.73-.23-1.31-.7-1.75-.46-.44-1.15-.65-2.04-.65-.59 0-1.15.11-1.69.33s-1.02.5-1.44.85l-.2-1.69c.41-.3.91-.54 1.5-.7s1.26-.25 1.99-.25c.7 0 1.31.09 1.84.27s.97.43 1.33.75.64.71.82 1.17c.19.46.28.96.29 1.51 0 .72-.14 1.4-.43 2.04s-.71 1.28-1.25 1.89c-.54.62-1.2 1.25-1.97 1.89-.78.64-1.65 1.31-2.62 2.02l6.41-.02v1.53l-8.17.03zM323.49 60.32a8.6 8.6 0 0 1-1.96-.21c-.6-.14-1.08-.33-1.42-.57l.41-1.6c.35.24.76.46 1.23.64.47.19 1.05.28 1.74.28.9 0 1.6-.27 2.1-.79s.74-1.21.74-2.06c0-.9-.23-1.55-.68-1.96s-1.03-.61-1.74-.61c-.58 0-1.04.09-1.38.26s-.6.35-.76.54h-1.29l-.02-6.98 6.84-.02v1.53l-5.38.02v3.89c.25-.18.55-.34.9-.47s.79-.2 1.3-.2c.55 0 1.06.08 1.54.25.47.17.89.42 1.23.75.35.34.63.75.83 1.25.21.5.31 1.07.31 1.72s-.1 1.24-.3 1.78c-.2.53-.5.99-.89 1.37s-.86.67-1.43.89c-.56.21-1.21.32-1.93.32zM354.93 60.22v-1.67c1.1-.88 2.04-1.67 2.84-2.36s1.45-1.33 1.97-1.9c.52-.58.91-1.13 1.16-1.65s.37-1.06.37-1.63c0-.73-.23-1.32-.7-1.75-.46-.44-1.15-.65-2.04-.65-.59 0-1.15.11-1.69.33s-1.02.5-1.44.85l-.2-1.69c.41-.3.91-.54 1.5-.7s1.26-.25 1.99-.25c.7 0 1.31.09 1.84.26.53.18.97.43 1.33.75s.64.71.82 1.17c.19.46.28.96.29 1.51 0 .72-.14 1.4-.43 2.04s-.71 1.28-1.25 1.9-1.2 1.25-1.97 1.89c-.78.64-1.65 1.31-2.62 2.03l6.41-.02v1.53l-8.17.03zM364.939 60.19v-1.67c1.1-.88 2.04-1.67 2.84-2.36s1.45-1.33 1.97-1.9c.52-.58.91-1.13 1.16-1.65s.37-1.07.37-1.63c0-.73-.23-1.31-.7-1.75-.46-.44-1.15-.65-2.04-.65-.59 0-1.15.11-1.69.33s-1.02.5-1.44.85l-.2-1.69c.41-.3.91-.54 1.5-.7s1.26-.25 1.99-.25c.7 0 1.31.09 1.84.27s.97.43 1.33.75.64.71.82 1.17c.19.46.28.96.29 1.51 0 .72-.14 1.4-.43 2.04s-.71 1.28-1.25 1.89c-.54.62-1.2 1.25-1.97 1.89-.78.64-1.65 1.31-2.62 2.02l6.41-.02v1.53l-8.17.03zM379.05 60.32c-.61 0-1.18-.12-1.7-.38q-.78-.39-1.35-1.2c-.38-.54-.68-1.23-.89-2.07-.21-.83-.32-1.83-.33-2.98 0-1.15.1-2.14.3-2.98.21-.83.5-1.52.88-2.05s.82-.93 1.34-1.19 1.09-.39 1.7-.39 1.18.12 1.69.37c.52.25.96.64 1.34 1.18.37.53.67 1.21.88 2.04s.32 1.81.33 2.97-.1 2.15-.3 2.98c-.21.83-.5 1.53-.87 2.08s-.81.96-1.33 1.23a3.6 3.6 0 0 1-1.69.4zm-.02-1.42q.615 0 1.08-.27c.31-.18.57-.48.79-.88.22-.41.38-.95.49-1.61s.17-1.48.16-2.44c0-.96-.06-1.77-.17-2.44s-.27-1.2-.49-1.61-.48-.7-.79-.88q-.465-.27-1.08-.27c-.41 0-.77.09-1.09.27s-.59.48-.81.88-.39.95-.5 1.61c-.11.67-.17 1.48-.16 2.44 0 .96.06 1.77.18 2.44s.28 1.2.5 1.61.49.7.8.88c.32.18.68.27 1.09.27M410.14 60.22v-1.67c1.1-.88 2.04-1.67 2.84-2.36s1.45-1.33 1.97-1.9c.52-.58.91-1.13 1.16-1.65s.37-1.06.37-1.63c0-.73-.23-1.32-.7-1.75-.46-.44-1.15-.65-2.04-.65-.59 0-1.15.11-1.69.33s-1.02.5-1.44.85l-.2-1.69c.41-.3.91-.54 1.5-.7s1.26-.25 1.99-.25c.7 0 1.31.09 1.84.26.53.18.97.43 1.33.75s.64.71.82 1.17c.19.46.28.96.29 1.51 0 .72-.14 1.4-.43 2.04s-.71 1.28-1.25 1.9-1.2 1.25-1.97 1.89c-.78.64-1.65 1.31-2.62 2.03l6.41-.02v1.53l-8.17.03zM420.15 60.19v-1.67c1.1-.88 2.04-1.67 2.84-2.36s1.45-1.33 1.97-1.9c.52-.58.91-1.13 1.16-1.65s.37-1.07.37-1.63c0-.73-.23-1.31-.7-1.75-.46-.44-1.15-.65-2.04-.65-.59 0-1.15.11-1.69.33s-1.02.5-1.44.85l-.2-1.69c.41-.3.91-.54 1.5-.7s1.26-.25 1.99-.25c.7 0 1.31.09 1.84.27s.97.43 1.33.75.64.71.82 1.17c.19.46.28.96.29 1.51 0 .72-.14 1.4-.43 2.04s-.71 1.28-1.25 1.89c-.54.62-1.2 1.25-1.97 1.89-.78.64-1.65 1.31-2.62 2.02l6.41-.02v1.53l-8.17.03zM433.61 60.32a8.6 8.6 0 0 1-1.96-.21c-.6-.14-1.08-.33-1.42-.57l.41-1.6c.35.24.76.46 1.23.64.47.19 1.05.28 1.74.28.9 0 1.6-.27 2.1-.79s.74-1.21.74-2.06c0-.9-.23-1.55-.68-1.96s-1.03-.61-1.74-.61c-.58 0-1.04.09-1.38.26s-.6.35-.76.54h-1.29l-.02-6.98 6.84-.02v1.53l-5.38.02v3.89c.25-.18.55-.34.9-.47s.79-.2 1.3-.2c.55 0 1.06.08 1.54.25.47.17.89.42 1.23.75.35.34.63.75.83 1.25.21.5.31 1.07.31 1.72s-.1 1.24-.3 1.78c-.2.53-.5.99-.89 1.37s-.86.67-1.43.89c-.56.21-1.21.32-1.93.32zM465.05 60.22v-1.67c1.1-.88 2.04-1.67 2.84-2.36s1.45-1.33 1.97-1.9c.52-.58.91-1.13 1.16-1.65s.37-1.06.37-1.63c0-.73-.23-1.32-.7-1.75-.46-.44-1.15-.65-2.04-.65-.59 0-1.15.11-1.69.33s-1.02.5-1.44.85l-.2-1.69c.41-.3.91-.54 1.5-.7s1.26-.25 1.99-.25c.7 0 1.31.09 1.84.26.53.18.97.43 1.33.75s.64.71.82 1.17c.19.46.28.96.29 1.51 0 .72-.14 1.4-.43 2.04s-.71 1.28-1.25 1.9-1.2 1.25-1.97 1.89c-.78.64-1.65 1.31-2.62 2.03l6.41-.02v1.53l-8.17.03zM481.81 57.08v3.08h-1.56v-3.08l-5.61.02V56l5.02-8.73h2.11l.03 8.45h1.75v1.34h-1.75zm-1.59-8.07-3.94 6.75h3.96zM489.17 60.32c-.61 0-1.18-.12-1.7-.38q-.78-.39-1.35-1.2c-.38-.54-.68-1.23-.89-2.07-.21-.83-.32-1.83-.33-2.98 0-1.15.1-2.14.3-2.98.21-.83.5-1.52.88-2.05s.82-.93 1.34-1.19 1.09-.39 1.7-.39 1.18.12 1.69.37c.52.25.96.64 1.34 1.18.37.53.67 1.21.88 2.04s.32 1.81.33 2.97-.1 2.15-.3 2.98c-.21.83-.5 1.53-.87 2.08s-.81.96-1.33 1.23a3.6 3.6 0 0 1-1.69.4zm-.02-1.42q.615 0 1.08-.27c.31-.18.57-.48.79-.88.22-.41.38-.95.49-1.61s.17-1.48.16-2.44c0-.96-.06-1.77-.17-2.44s-.27-1.2-.49-1.61-.48-.7-.79-.88q-.465-.27-1.08-.27c-.41 0-.77.09-1.09.27s-.59.48-.81.88-.39.95-.5 1.61c-.11.67-.17 1.48-.16 2.44 0 .96.06 1.77.18 2.44s.28 1.2.5 1.61.49.7.8.88c.32.18.68.27 1.09.27M523.2 60.22v-1.67c1.1-.88 2.04-1.67 2.84-2.36s1.45-1.33 1.97-1.9c.52-.58.91-1.13 1.16-1.65s.37-1.06.37-1.63c0-.73-.23-1.32-.7-1.75-.46-.44-1.15-.65-2.04-.65-.59 0-1.15.11-1.69.33s-1.02.5-1.44.85l-.2-1.69c.41-.3.91-.54 1.5-.7s1.26-.25 1.99-.25c.7 0 1.31.09 1.84.26.53.18.97.43 1.33.75s.64.71.82 1.17c.19.46.28.96.29 1.51 0 .72-.14 1.4-.43 2.04s-.71 1.28-1.25 1.9-1.2 1.25-1.97 1.89c-.78.64-1.65 1.31-2.62 2.03l6.41-.02v1.53l-8.17.03zM539.96 57.08v3.08h-1.56v-3.08l-5.61.02V56l5.02-8.73h2.11l.03 8.45h1.75v1.34h-1.75zm-1.59-8.07-3.94 6.75h3.96zM546.67 60.32a8.6 8.6 0 0 1-1.96-.21c-.6-.14-1.08-.33-1.42-.57l.41-1.6c.35.24.76.46 1.23.64.47.19 1.05.28 1.74.28.9 0 1.6-.27 2.1-.79s.74-1.21.74-2.06c0-.9-.23-1.55-.68-1.96s-1.03-.61-1.74-.61c-.58 0-1.04.09-1.38.26s-.6.35-.76.54h-1.29l-.02-6.98 6.84-.02v1.53l-5.38.02v3.89c.25-.18.55-.34.9-.47s.79-.2 1.3-.2c.55 0 1.06.08 1.54.25.47.17.89.42 1.23.75.35.34.63.75.83 1.25.21.5.31 1.07.31 1.72s-.1 1.24-.3 1.78c-.2.53-.5.99-.89 1.37s-.86.67-1.43.89c-.56.21-1.21.32-1.93.32z"/><g fill="#3B4856" opacity=".5"><path d="M31.2 90.3c-.72 0-1.31.17-1.75.5-.45.33-.81.76-1.08 1.27l.02 6.35h-1.58l-.03-9.34h1.49l.06 1.67h.04c.25-.54.65-.99 1.18-1.34s1.22-.53 2.05-.53c.92 0 1.66.24 2.21.72s.82 1.23.83 2.24l.02 6.55h-1.58l-.02-6.38c0-.65-.17-1.1-.49-1.35-.33-.25-.78-.38-1.35-.37zM36.06 100.56l5.65-15.79h1.44l-5.64 15.78h-1.46zM49.13 96.81c-.13.21-.29.41-.47.62-.19.21-.41.4-.67.56s-.55.29-.89.4c-.34.1-.71.16-1.12.16-.84 0-1.52-.23-2.03-.7q-.78-.705-.78-2.04c0-2.03 1.49-3.05 4.49-3.06h1.37v-.71c0-.65-.17-1.11-.52-1.38-.34-.27-.91-.41-1.7-.41-.61 0-1.15.08-1.63.24q-.705.24-1.23.54l-.38-1.31c.32-.21.77-.4 1.35-.59s1.24-.28 2-.29c1.2 0 2.12.24 2.75.73s.95 1.24.95 2.26l.02 5v.37c0 .14.01.28.02.42 0 .14.02.28.03.4s.02.23.04.31h-1.46c-.03-.16-.05-.4-.08-.71s-.05-.57-.05-.8v-.04zm-2.81.33q.495 0 .93-.15c.28-.1.53-.22.75-.38s.42-.32.59-.51.32-.36.44-.54V94H47.8q-1.695 0-2.37.45c-.46.3-.68.72-.68 1.26 0 .42.13.77.38 1.03.25.27.65.4 1.19.39z"/></g><path fill="#3B4856" d="M79.79 99.44v-1.67c1.1-.88 2.04-1.67 2.84-2.36s1.45-1.33 1.97-1.91.91-1.13 1.16-1.65.37-1.07.37-1.63c0-.73-.23-1.31-.7-1.75-.46-.44-1.15-.65-2.04-.65-.59 0-1.15.11-1.69.33s-1.02.5-1.44.85l-.2-1.69c.41-.3.91-.54 1.5-.7s1.26-.25 1.99-.25c.7 0 1.31.09 1.84.26.53.18.97.43 1.33.75s.64.71.82 1.17c.19.46.28.96.29 1.51 0 .72-.14 1.4-.43 2.04s-.71 1.28-1.25 1.89c-.54.62-1.2 1.25-1.97 1.89-.78.64-1.65 1.31-2.62 2.02l6.41-.02v1.53l-8.17.03zM93.91 99.57c-.61 0-1.18-.12-1.7-.38q-.78-.39-1.35-1.2c-.38-.54-.68-1.23-.89-2.07-.21-.83-.32-1.83-.33-2.98 0-1.15.1-2.14.3-2.98.21-.83.5-1.52.88-2.05s.83-.93 1.35-1.19 1.09-.39 1.7-.39 1.18.12 1.69.37c.52.25.96.64 1.34 1.18.37.53.67 1.21.88 2.04q.315 1.245.33 2.97c.01 1.15-.1 2.15-.3 2.98-.21.84-.5 1.53-.87 2.08s-.81.96-1.33 1.23a3.6 3.6 0 0 1-1.69.4zm-.02-1.42q.615 0 1.08-.27c.31-.18.57-.48.79-.88.22-.41.38-.95.49-1.61s.17-1.48.16-2.44c0-.96-.06-1.77-.17-2.44-.11-.66-.27-1.2-.49-1.61s-.48-.7-.79-.88q-.465-.27-1.08-.27c-.41 0-.77.09-1.09.28-.32.18-.59.48-.81.88s-.39.95-.5 1.61c-.11.67-.17 1.48-.16 2.44 0 .96.06 1.77.18 2.44s.28 1.2.5 1.61.49.7.8.88.68.27 1.09.27zM103.91 99.53c-.61 0-1.18-.12-1.7-.38q-.78-.39-1.35-1.2c-.38-.54-.68-1.23-.89-2.07-.21-.83-.32-1.82-.33-2.98 0-1.15.1-2.14.3-2.98.21-.83.5-1.52.88-2.05.38-.54.82-.93 1.34-1.19s1.09-.39 1.7-.39 1.18.12 1.69.37c.52.25.96.64 1.34 1.18.37.53.67 1.21.88 2.04q.315 1.245.33 2.97c.01 1.15-.1 2.15-.3 2.98-.21.83-.5 1.53-.87 2.08s-.81.96-1.33 1.23a3.6 3.6 0 0 1-1.69.4zm-.02-1.42q.615 0 1.08-.27c.31-.18.57-.48.79-.88.22-.41.38-.95.49-1.61.11-.67.17-1.48.16-2.44 0-.96-.06-1.77-.17-2.44s-.27-1.2-.49-1.61-.48-.7-.79-.88q-.465-.27-1.08-.27c-.41 0-.77.09-1.09.28-.32.18-.59.48-.81.88-.22.41-.39.95-.5 1.61-.11.67-.17 1.48-.16 2.44 0 .96.06 1.77.18 2.44s.28 1.2.5 1.61.49.7.8.88.68.27 1.09.27zM135 99.44v-1.67c1.1-.88 2.04-1.67 2.84-2.36s1.45-1.33 1.97-1.91.91-1.13 1.16-1.65.37-1.07.37-1.63c0-.73-.23-1.31-.7-1.75-.46-.44-1.15-.65-2.04-.65-.59 0-1.15.11-1.69.33s-1.02.5-1.44.85l-.2-1.69c.41-.3.91-.54 1.5-.7s1.26-.25 1.99-.25c.7 0 1.31.09 1.84.26.53.18.97.43 1.33.75s.64.71.82 1.17c.19.46.28.96.29 1.51 0 .72-.14 1.4-.43 2.04s-.71 1.28-1.25 1.89c-.54.62-1.2 1.25-1.97 1.89-.78.64-1.65 1.31-2.62 2.02l6.41-.02v1.53l-8.17.03zM145.01 99.4v-1.67c1.1-.88 2.04-1.67 2.84-2.36s1.45-1.33 1.97-1.91.91-1.13 1.16-1.65.37-1.07.37-1.63c0-.73-.23-1.32-.7-1.75-.46-.44-1.15-.65-2.04-.65-.59 0-1.15.11-1.69.33s-1.02.5-1.44.85l-.2-1.69c.41-.3.91-.53 1.5-.7.59-.16 1.26-.25 1.99-.25.7 0 1.31.09 1.84.26.53.18.97.43 1.33.75s.64.71.82 1.17c.19.46.28.96.29 1.51 0 .72-.14 1.4-.43 2.04s-.71 1.28-1.25 1.89-1.2 1.25-1.97 1.89c-.78.64-1.65 1.31-2.62 2.03l6.41-.02v1.53l-8.17.03zM159.12 99.53c-.61 0-1.18-.12-1.7-.38q-.78-.39-1.35-1.2c-.38-.54-.68-1.23-.89-2.07-.21-.83-.32-1.82-.33-2.98 0-1.15.1-2.14.3-2.98.21-.83.5-1.52.88-2.05.38-.54.82-.93 1.34-1.19s1.09-.39 1.7-.39 1.18.12 1.69.37c.52.25.96.64 1.34 1.18.37.53.67 1.21.88 2.04q.315 1.245.33 2.97c.01 1.15-.1 2.15-.3 2.98-.21.83-.5 1.53-.87 2.08s-.81.96-1.33 1.23a3.6 3.6 0 0 1-1.69.4zm-.02-1.42q.615 0 1.08-.27c.31-.18.57-.48.79-.88.22-.41.38-.95.49-1.61.11-.67.17-1.48.16-2.44 0-.96-.06-1.77-.17-2.44s-.27-1.2-.49-1.61-.48-.7-.79-.88q-.465-.27-1.08-.27c-.41 0-.77.09-1.09.28-.32.18-.59.48-.81.88-.22.41-.39.95-.5 1.61-.11.67-.17 1.48-.16 2.44 0 .96.06 1.77.18 2.44s.28 1.2.5 1.61.49.7.8.88.68.27 1.09.27zM189.91 99.44v-1.67c1.1-.88 2.04-1.67 2.84-2.36s1.45-1.33 1.97-1.91.91-1.13 1.16-1.65.37-1.07.37-1.63c0-.73-.23-1.32-.7-1.75-.46-.44-1.15-.65-2.04-.65-.59 0-1.15.11-1.69.33s-1.02.5-1.44.85l-.2-1.69c.41-.3.91-.54 1.5-.7s1.26-.25 1.99-.25c.7 0 1.31.09 1.84.26.53.18.97.43 1.33.75s.64.71.82 1.17c.19.46.28.96.29 1.51 0 .72-.14 1.4-.43 2.04s-.71 1.28-1.25 1.9-1.2 1.25-1.97 1.89c-.78.64-1.65 1.31-2.62 2.02l6.41-.02v1.53l-8.17.03zM204.09 99.39l-.04-10.85-3.55 2.73v-1.82l3.82-2.95h1.39l.04 12.88h-1.66zM213.38 99.54a8.6 8.6 0 0 1-1.96-.21c-.6-.14-1.08-.33-1.42-.57l.41-1.6c.35.24.76.45 1.23.64s1.05.28 1.74.28c.9 0 1.6-.27 2.1-.79s.74-1.21.74-2.06c0-.9-.23-1.55-.68-1.96s-1.03-.61-1.74-.61c-.58 0-1.04.09-1.38.26s-.6.35-.76.54h-1.29l-.02-6.98 6.84-.02v1.53l-5.38.02v3.89c.25-.18.55-.34.9-.47s.79-.2 1.3-.2c.55 0 1.06.08 1.54.25.47.17.89.42 1.23.75.35.33.63.75.83 1.25.21.5.31 1.07.31 1.72s-.1 1.24-.3 1.78c-.2.53-.5.99-.89 1.37s-.86.67-1.43.89c-.56.21-1.21.32-1.93.32zM245.12 99.44v-1.67c1.1-.88 2.04-1.67 2.84-2.36s1.45-1.33 1.97-1.91.91-1.13 1.16-1.65.37-1.07.37-1.63c0-.73-.23-1.32-.7-1.75-.46-.44-1.15-.65-2.04-.65-.59 0-1.15.11-1.69.33s-1.02.5-1.44.85l-.2-1.69c.41-.3.91-.54 1.5-.7s1.26-.25 1.99-.25c.7 0 1.31.09 1.84.26.53.18.97.43 1.33.75s.64.71.82 1.17c.19.46.28.96.29 1.51 0 .72-.14 1.4-.43 2.04s-.71 1.28-1.25 1.9-1.2 1.25-1.97 1.89c-.78.64-1.65 1.31-2.62 2.02l6.41-.02v1.53l-8.17.03zM258.47 99.57c-.72 0-1.37-.08-1.96-.25s-1.06-.41-1.42-.72l.43-1.58c.33.27.72.53 1.2.76.47.23 1.05.35 1.72.34q1.515 0 2.25-.63c.49-.42.74-1.01.73-1.77 0-.72-.22-1.28-.66-1.69s-1.13-.61-2.08-.6h-1.8v-1.47h1.87c.66 0 1.2-.2 1.61-.57s.62-.9.62-1.59c0-.62-.21-1.12-.63-1.47-.42-.36-1.06-.54-1.94-.53-.59 0-1.13.11-1.64.32-.5.21-.91.45-1.22.71l-.26-1.6c.84-.59 1.91-.89 3.2-.89.65 0 1.22.08 1.73.25.5.17.93.4 1.28.69s.61.65.8 1.06q.27.615.27 1.38a3.06 3.06 0 0 1-.65 1.93c-.19.24-.43.44-.7.59s-.55.26-.85.34c.36.06.71.17 1.04.35.33.17.62.39.88.66.25.27.46.59.61.97s.23.8.23 1.27c0 .55-.11 1.06-.33 1.52s-.53.86-.94 1.19q-.615.495-1.47.78c-.57.19-1.2.28-1.9.29zM269.23 99.53c-.61 0-1.18-.12-1.7-.38q-.78-.39-1.35-1.2c-.38-.54-.68-1.23-.89-2.07-.21-.83-.32-1.83-.33-2.98 0-1.15.1-2.14.3-2.98.21-.83.5-1.52.88-2.05s.82-.93 1.34-1.19 1.09-.39 1.7-.39 1.18.12 1.69.37c.52.25.96.64 1.34 1.18.37.53.67 1.21.88 2.04q.315 1.245.33 2.97c.01 1.15-.1 2.15-.3 2.98-.21.83-.5 1.53-.87 2.08s-.81.96-1.33 1.23a3.6 3.6 0 0 1-1.69.4zm-.02-1.42q.615 0 1.08-.27c.31-.18.57-.48.79-.88.22-.41.38-.95.49-1.61.11-.67.17-1.48.16-2.44 0-.96-.06-1.77-.17-2.44s-.27-1.2-.49-1.61-.48-.7-.79-.88q-.465-.27-1.08-.27c-.41 0-.77.09-1.09.27s-.59.48-.81.88c-.22.41-.39.95-.5 1.61-.11.67-.17 1.48-.16 2.44 0 .96.06 1.77.18 2.44s.28 1.2.5 1.61.49.7.8.88c.32.18.68.27 1.09.27M300.02 99.44v-1.67c1.1-.88 2.04-1.67 2.84-2.36s1.45-1.33 1.97-1.91.91-1.13 1.16-1.65.37-1.07.37-1.63c0-.73-.23-1.31-.7-1.75-.46-.44-1.15-.65-2.04-.65-.59 0-1.15.11-1.69.33s-1.02.5-1.44.85l-.2-1.69c.41-.3.91-.54 1.5-.7s1.26-.25 1.99-.25c.7 0 1.31.09 1.84.26.53.18.97.43 1.33.75s.64.71.82 1.17c.19.46.28.96.29 1.51 0 .72-.14 1.4-.43 2.04s-.71 1.28-1.25 1.89c-.54.62-1.2 1.25-1.97 1.89-.78.64-1.65 1.31-2.62 2.02l6.41-.02v1.53l-8.17.03zM313.38 99.57c-.72 0-1.37-.08-1.96-.25s-1.06-.41-1.42-.72l.43-1.59c.33.28.72.53 1.2.76.47.23 1.05.35 1.72.34q1.515 0 2.25-.63c.49-.41.74-1.01.73-1.77 0-.72-.22-1.29-.66-1.69s-1.13-.61-2.08-.6h-1.8v-1.47h1.87c.66 0 1.2-.2 1.61-.57s.62-.9.62-1.59c0-.62-.21-1.12-.63-1.47-.42-.36-1.06-.54-1.94-.53-.59 0-1.13.11-1.64.32-.5.21-.91.45-1.22.71l-.26-1.6c.84-.59 1.91-.89 3.2-.89.65 0 1.22.08 1.73.25.5.17.93.4 1.28.69s.61.65.8 1.06q.27.615.27 1.38c0 .39-.06.76-.18 1.08s-.28.61-.47.85c-.2.24-.43.44-.7.59s-.55.26-.85.34c.36.06.71.18 1.04.35s.62.39.88.66.46.59.61.97.23.8.23 1.27c0 .55-.11 1.06-.33 1.52s-.53.86-.94 1.19q-.615.495-1.47.78c-.57.19-1.2.28-1.9.29zM323.49 99.54a8.6 8.6 0 0 1-1.96-.21c-.6-.14-1.08-.33-1.42-.57l.41-1.6c.35.24.76.45 1.23.64s1.05.29 1.74.28c.9 0 1.6-.27 2.1-.79.5-.53.74-1.21.74-2.06 0-.9-.23-1.55-.68-1.96s-1.03-.61-1.74-.61c-.58 0-1.04.09-1.38.26s-.6.35-.76.54h-1.29l-.02-6.98 6.84-.02v1.53l-5.38.02v3.89c.25-.18.55-.34.9-.47s.79-.2 1.3-.2c.55 0 1.06.08 1.54.25.47.17.89.42 1.23.75.35.33.63.75.83 1.25.21.5.31 1.07.31 1.72s-.1 1.24-.3 1.78-.5.99-.89 1.37-.86.68-1.43.89-1.21.32-1.93.32zM354.93 99.44v-1.67c1.1-.88 2.04-1.67 2.84-2.36s1.45-1.33 1.97-1.91.91-1.13 1.16-1.65.37-1.07.37-1.63c0-.73-.23-1.31-.7-1.75-.46-.44-1.15-.65-2.04-.65-.59 0-1.15.11-1.69.33s-1.02.5-1.44.85l-.2-1.69c.41-.3.91-.54 1.5-.7s1.26-.25 1.99-.25c.7 0 1.31.09 1.84.26.53.18.97.43 1.33.75s.64.71.82 1.17c.19.46.28.96.29 1.51 0 .72-.14 1.4-.43 2.04s-.71 1.28-1.25 1.89c-.54.62-1.2 1.25-1.97 1.89-.78.64-1.65 1.31-2.62 2.02l6.41-.02v1.53l-8.17.03zM364.939 99.4v-1.67c1.1-.88 2.04-1.67 2.84-2.36s1.45-1.33 1.97-1.91.91-1.13 1.16-1.65.37-1.07.37-1.63c0-.73-.23-1.32-.7-1.75-.46-.44-1.15-.65-2.04-.65-.59 0-1.15.11-1.69.33s-1.02.5-1.44.85l-.2-1.69c.41-.3.91-.53 1.5-.7.59-.16 1.26-.25 1.99-.25.7 0 1.31.09 1.84.26.53.18.97.43 1.33.75s.64.71.82 1.17c.19.46.28.96.29 1.51 0 .72-.14 1.4-.43 2.04s-.71 1.28-1.25 1.89-1.2 1.25-1.97 1.89c-.78.64-1.65 1.31-2.62 2.03l6.41-.02v1.53l-8.17.03zM378.4 99.54a8.6 8.6 0 0 1-1.96-.21c-.6-.14-1.08-.33-1.42-.57l.41-1.6c.35.24.76.45 1.23.64s1.05.29 1.74.28c.9 0 1.6-.27 2.1-.79.5-.53.74-1.21.74-2.06 0-.9-.23-1.55-.68-1.96s-1.03-.61-1.74-.61c-.58 0-1.04.09-1.38.26s-.6.35-.76.54h-1.29l-.02-6.98 6.84-.02v1.53l-5.38.02v3.89c.25-.18.55-.34.9-.47s.79-.2 1.3-.2c.55 0 1.06.08 1.54.25.47.17.89.42 1.23.75.35.33.63.75.83 1.25.21.5.31 1.07.31 1.72s-.1 1.24-.3 1.78-.5.99-.89 1.37-.86.68-1.43.89-1.21.32-1.93.32zM410.14 99.44v-1.67c1.1-.88 2.04-1.67 2.84-2.36s1.45-1.33 1.97-1.91.91-1.13 1.16-1.65.37-1.07.37-1.63c0-.73-.23-1.31-.7-1.75-.46-.44-1.15-.65-2.04-.65-.59 0-1.15.11-1.69.33s-1.02.5-1.44.85l-.2-1.69c.41-.3.91-.54 1.5-.7s1.26-.25 1.99-.25c.7 0 1.31.09 1.84.26.53.18.97.43 1.33.75s.64.71.82 1.17c.19.46.28.96.29 1.51 0 .72-.14 1.4-.43 2.04s-.71 1.28-1.25 1.89c-.54.62-1.2 1.25-1.97 1.89-.78.64-1.65 1.31-2.62 2.02l6.41-.02v1.53l-8.17.03zM420.15 99.4v-1.67c1.1-.88 2.04-1.67 2.84-2.36s1.45-1.33 1.97-1.91.91-1.13 1.16-1.65.37-1.07.37-1.63c0-.73-.23-1.32-.7-1.75-.46-.44-1.15-.65-2.04-.65-.59 0-1.15.11-1.69.33s-1.02.5-1.44.85l-.2-1.69c.41-.3.91-.53 1.5-.7.59-.16 1.26-.25 1.99-.25.7 0 1.31.09 1.84.26.53.18.97.43 1.33.75s.64.71.82 1.17c.19.46.28.96.29 1.51 0 .72-.14 1.4-.43 2.04s-.71 1.28-1.25 1.89-1.2 1.25-1.97 1.89c-.78.64-1.65 1.31-2.62 2.03l6.41-.02v1.53l-8.17.03zM434.26 99.53c-.61 0-1.18-.12-1.7-.38q-.78-.39-1.35-1.2c-.38-.54-.68-1.23-.89-2.07-.21-.83-.32-1.82-.33-2.98 0-1.15.1-2.14.3-2.98.21-.83.5-1.52.88-2.05.38-.54.82-.93 1.34-1.19s1.09-.39 1.7-.39 1.18.12 1.69.37c.52.25.96.64 1.34 1.18.37.53.67 1.21.88 2.04q.315 1.245.33 2.97c.01 1.15-.1 2.15-.3 2.98-.21.83-.5 1.53-.87 2.08s-.81.96-1.33 1.23a3.6 3.6 0 0 1-1.69.4zm-.02-1.42q.615 0 1.08-.27c.31-.18.57-.48.79-.88.22-.41.38-.95.49-1.61.11-.67.17-1.48.16-2.44 0-.96-.06-1.77-.17-2.44s-.27-1.2-.49-1.61-.48-.7-.79-.88q-.465-.27-1.08-.27c-.41 0-.77.09-1.09.28-.32.18-.59.48-.81.88-.22.41-.39.95-.5 1.61-.11.67-.17 1.48-.16 2.44 0 .96.06 1.77.18 2.44s.28 1.2.5 1.61.49.7.8.88.68.27 1.09.27zM465.05 99.44v-1.67c1.1-.88 2.04-1.67 2.84-2.36s1.45-1.33 1.97-1.91.91-1.13 1.16-1.65.37-1.07.37-1.63c0-.73-.23-1.31-.7-1.75-.46-.44-1.15-.65-2.04-.65-.59 0-1.15.11-1.69.33s-1.02.5-1.44.85l-.2-1.69c.41-.3.91-.54 1.5-.7s1.26-.25 1.99-.25c.7 0 1.31.09 1.84.26.53.18.97.43 1.33.75s.64.71.82 1.17c.19.46.28.96.29 1.51 0 .72-.14 1.4-.43 2.04s-.71 1.28-1.25 1.89c-.54.62-1.2 1.25-1.97 1.89-.78.64-1.65 1.31-2.62 2.02l6.41-.02v1.53l-8.17.03zM475.06 99.4v-1.67c1.1-.88 2.04-1.67 2.84-2.36s1.45-1.33 1.97-1.91.91-1.13 1.16-1.65.37-1.07.37-1.63c0-.73-.23-1.32-.7-1.75-.46-.44-1.15-.65-2.04-.65-.59 0-1.15.11-1.69.33s-1.02.5-1.44.85l-.2-1.69c.41-.3.91-.53 1.5-.7.59-.16 1.26-.25 1.99-.25.7 0 1.31.09 1.84.26.53.18.97.43 1.33.75s.64.71.82 1.17c.19.46.28.96.29 1.51 0 .72-.14 1.4-.43 2.04s-.71 1.28-1.25 1.89-1.2 1.25-1.97 1.89c-.78.64-1.65 1.31-2.62 2.03l6.41-.02v1.53l-8.17.03zM488.52 99.54a8.6 8.6 0 0 1-1.96-.21c-.6-.14-1.08-.33-1.42-.57l.41-1.6c.35.24.76.45 1.23.64s1.05.29 1.74.28c.9 0 1.6-.27 2.1-.79.5-.53.74-1.21.74-2.06 0-.9-.23-1.55-.68-1.96s-1.03-.61-1.74-.61c-.58 0-1.04.09-1.38.26s-.6.35-.76.54h-1.29l-.02-6.98 6.84-.02v1.53l-5.38.02v3.89c.25-.18.55-.34.9-.47s.79-.2 1.3-.2c.55 0 1.06.08 1.54.25.47.17.89.42 1.23.75.35.33.63.75.83 1.25.21.5.31 1.07.31 1.72s-.1 1.24-.3 1.78-.5.99-.89 1.37-.86.68-1.43.89-1.21.32-1.93.32zM523.2 99.44v-1.67c1.1-.88 2.04-1.67 2.84-2.36s1.45-1.33 1.97-1.91.91-1.13 1.16-1.65.37-1.07.37-1.63c0-.73-.23-1.31-.7-1.75-.46-.44-1.15-.65-2.04-.65-.59 0-1.15.11-1.69.33s-1.02.5-1.44.85l-.2-1.69c.41-.3.91-.54 1.5-.7s1.26-.25 1.99-.25c.7 0 1.31.09 1.84.26.53.18.97.43 1.33.75s.64.71.82 1.17c.19.46.28.96.29 1.51 0 .72-.14 1.4-.43 2.04s-.71 1.28-1.25 1.89c-.54.62-1.2 1.25-1.97 1.89-.78.64-1.65 1.31-2.62 2.02l6.41-.02v1.53l-8.17.03zM539.96 96.3v3.08h-1.56V96.3l-5.61.02v-1.1l5.02-8.72h2.11l.03 8.45h1.75v1.34h-1.75zm-1.59-8.07-3.94 6.75h3.96zM547.31 99.53c-.61 0-1.18-.12-1.7-.38q-.78-.39-1.35-1.2c-.38-.54-.68-1.23-.89-2.07-.21-.83-.32-1.82-.33-2.98 0-1.15.1-2.14.3-2.98.21-.83.5-1.52.88-2.05.38-.54.82-.93 1.34-1.19s1.09-.39 1.7-.39 1.18.12 1.69.37c.52.25.96.64 1.34 1.18.37.53.67 1.21.88 2.04q.315 1.245.33 2.97c.01 1.15-.1 2.15-.3 2.98-.21.83-.5 1.53-.87 2.08s-.81.96-1.33 1.23a3.6 3.6 0 0 1-1.69.4zm-.02-1.42q.615 0 1.08-.27c.31-.18.57-.48.79-.88.22-.41.38-.95.49-1.61.11-.67.17-1.48.16-2.44 0-.96-.06-1.77-.17-2.44s-.27-1.2-.49-1.61-.48-.7-.79-.88q-.465-.27-1.08-.27c-.41 0-.77.09-1.09.28-.32.18-.59.48-.81.88-.22.41-.39.95-.5 1.61-.11.67-.17 1.48-.16 2.44 0 .96.06 1.77.18 2.44s.28 1.2.5 1.61.49.7.8.88.68.27 1.09.27z"/><g fill="#3B4856" opacity=".5"><path d="M31.2 128.52c-.72 0-1.31.17-1.75.5-.45.33-.81.76-1.08 1.27l.02 6.35h-1.58l-.03-9.34h1.49l.06 1.67h.04c.25-.54.65-.99 1.18-1.34s1.22-.53 2.05-.53c.92 0 1.66.24 2.21.72s.82 1.23.83 2.24l.02 6.55h-1.58l-.02-6.38c0-.65-.17-1.1-.49-1.35-.33-.25-.78-.38-1.35-.37zM36.06 138.79 41.71 123h1.44l-5.64 15.78h-1.46zM49.13 135.03c-.13.21-.29.41-.47.62-.19.21-.41.4-.67.56s-.55.29-.89.4c-.34.1-.71.16-1.12.16-.84 0-1.52-.23-2.03-.7q-.78-.705-.78-2.04c0-2.03 1.49-3.05 4.49-3.06h1.37v-.71c0-.65-.17-1.11-.52-1.38-.34-.27-.91-.41-1.7-.41-.61 0-1.15.08-1.63.24q-.705.24-1.23.54l-.38-1.31c.32-.21.77-.4 1.35-.59s1.24-.28 2-.29c1.2 0 2.12.24 2.75.73s.95 1.24.95 2.26l.02 5v.37c0 .14.01.28.02.42 0 .14.02.28.03.4s.02.23.04.31h-1.46c-.03-.16-.05-.4-.08-.71s-.05-.57-.05-.8V135zm-2.81.33q.495 0 .93-.15c.28-.1.53-.22.75-.38s.42-.32.59-.51.32-.36.44-.54v-1.56H47.8q-1.695 0-2.37.45c-.46.3-.68.72-.68 1.26 0 .42.13.77.38 1.03.25.27.65.4 1.19.39z"/></g><g fill="#3B4856" opacity=".5"><path d="M86.41 130.51c-.72 0-1.31.17-1.75.5-.45.33-.81.76-1.08 1.27l.02 6.35h-1.58l-.03-9.34h1.49l.06 1.67h.04c.25-.54.65-.99 1.18-1.34s1.22-.53 2.05-.53c.92 0 1.66.24 2.21.72s.82 1.23.83 2.24l.02 6.55h-1.58l-.02-6.38c0-.65-.17-1.1-.49-1.35s-.78-.38-1.35-.37zM91.27 140.77l5.65-15.79h1.44l-5.64 15.78h-1.46zM104.34 137.02c-.13.21-.29.41-.47.62-.19.21-.41.4-.67.56s-.55.3-.89.4-.71.16-1.12.16c-.84 0-1.52-.23-2.03-.7q-.78-.705-.78-2.04c0-2.03 1.49-3.05 4.49-3.06h1.37v-.71c0-.65-.17-1.11-.52-1.38-.34-.27-.91-.41-1.7-.41-.61 0-1.15.08-1.63.24q-.705.24-1.23.54l-.38-1.31c.32-.21.77-.4 1.35-.59s1.24-.28 2-.29c1.2 0 2.12.24 2.75.73s.95 1.24.95 2.26l.02 5v.37c0 .14.01.28.02.42 0 .14.02.28.03.4.01.13.02.23.04.32h-1.46c-.03-.16-.05-.4-.08-.71s-.05-.57-.05-.8V137zm-2.81.33q.495 0 .93-.15c.28-.1.53-.22.75-.38a4.3 4.3 0 0 0 1.03-1.05v-1.56h-1.23c-1.13 0-1.92.16-2.37.45-.46.3-.68.72-.68 1.26 0 .42.13.77.38 1.03s.65.4 1.19.39z"/></g><path fill="#3B4856" d="M135 138.65v-1.67c1.1-.88 2.04-1.67 2.84-2.36s1.45-1.33 1.97-1.91.91-1.13 1.16-1.65.37-1.07.37-1.63c0-.73-.23-1.32-.7-1.75-.46-.44-1.15-.65-2.04-.65-.59 0-1.15.11-1.69.33s-1.02.5-1.44.85l-.2-1.69c.41-.3.91-.54 1.5-.7s1.26-.25 1.99-.25c.7 0 1.31.09 1.84.26.53.18.97.43 1.33.75s.64.71.82 1.17c.19.46.28.96.29 1.51 0 .72-.14 1.4-.43 2.04s-.71 1.28-1.25 1.9-1.2 1.25-1.97 1.89c-.78.64-1.65 1.31-2.62 2.02l6.41-.02v1.53l-8.17.03zM149.11 138.78c-.61 0-1.18-.12-1.7-.38q-.78-.39-1.35-1.2c-.38-.54-.68-1.23-.89-2.07-.21-.83-.32-1.83-.33-2.98 0-1.15.1-2.15.3-2.98.21-.83.5-1.52.88-2.05s.83-.93 1.35-1.19 1.09-.39 1.7-.39 1.18.12 1.69.37c.52.25.96.64 1.34 1.18.37.53.67 1.21.88 2.04q.315 1.245.33 2.97c.01 1.15-.1 2.15-.3 2.98-.21.83-.5 1.53-.87 2.08s-.81.96-1.33 1.23a3.6 3.6 0 0 1-1.69.4zm-.02-1.42q.615 0 1.08-.27c.31-.18.57-.48.79-.88.22-.41.38-.95.49-1.61.11-.67.17-1.48.16-2.44 0-.96-.06-1.77-.17-2.44s-.27-1.2-.49-1.61-.48-.7-.79-.88q-.465-.27-1.08-.27c-.41 0-.77.09-1.09.27s-.59.48-.81.88-.39.95-.5 1.61c-.11.67-.17 1.48-.16 2.44 0 .96.06 1.77.18 2.44s.28 1.2.5 1.61.49.7.8.88c.32.18.68.27 1.09.27M159.12 138.75c-.61 0-1.18-.12-1.7-.38q-.78-.39-1.35-1.2c-.38-.54-.68-1.23-.89-2.07-.21-.83-.32-1.83-.33-2.98 0-1.15.1-2.14.3-2.98.21-.83.5-1.52.88-2.05s.82-.93 1.34-1.19 1.09-.39 1.7-.39 1.18.12 1.69.37c.52.25.96.64 1.34 1.18.37.53.67 1.21.88 2.04q.315 1.245.33 2.97c.01 1.15-.1 2.15-.3 2.98-.21.83-.5 1.53-.87 2.08s-.81.96-1.33 1.23a3.6 3.6 0 0 1-1.69.4zm-.02-1.42q.615 0 1.08-.27c.31-.18.57-.48.79-.88.22-.41.38-.95.49-1.61.11-.67.17-1.48.16-2.44 0-.96-.06-1.77-.17-2.44s-.27-1.2-.49-1.61-.48-.7-.79-.88q-.465-.27-1.08-.27c-.41 0-.77.09-1.09.27s-.59.48-.81.88c-.22.41-.39.95-.5 1.61-.11.67-.17 1.48-.16 2.44 0 .96.06 1.77.18 2.44s.28 1.2.5 1.61.49.7.8.88c.32.18.68.27 1.09.27M189.91 138.65v-1.67c1.1-.88 2.04-1.67 2.84-2.36s1.45-1.33 1.97-1.91.91-1.13 1.16-1.65.37-1.07.37-1.63c0-.73-.23-1.32-.7-1.75-.46-.44-1.15-.65-2.04-.65-.59 0-1.15.11-1.69.33s-1.02.5-1.44.85l-.2-1.69c.41-.3.91-.54 1.5-.7s1.26-.25 1.99-.25c.7 0 1.31.09 1.84.26.53.18.97.43 1.33.75s.64.71.82 1.17c.19.46.28.96.29 1.51 0 .72-.14 1.4-.43 2.04s-.71 1.28-1.25 1.9-1.2 1.25-1.97 1.89c-.78.64-1.65 1.31-2.62 2.02l6.41-.02v1.53l-8.17.03zM199.92 138.62v-1.67c1.1-.88 2.04-1.67 2.84-2.36s1.45-1.33 1.97-1.91.91-1.13 1.16-1.65.37-1.07.37-1.63c0-.73-.23-1.32-.7-1.75-.46-.44-1.15-.65-2.04-.65-.59 0-1.15.11-1.69.33s-1.02.5-1.44.85l-.2-1.69c.41-.3.91-.53 1.5-.7.59-.16 1.26-.25 1.99-.25.7 0 1.31.09 1.84.26.53.18.97.43 1.33.75s.64.71.82 1.17c.19.46.28.96.29 1.51 0 .72-.14 1.4-.43 2.04s-.71 1.28-1.25 1.89c-.54.62-1.2 1.25-1.97 1.89-.78.64-1.65 1.31-2.62 2.02l6.41-.02v1.53l-8.17.03zM214.03 138.75c-.61 0-1.18-.12-1.7-.38q-.78-.39-1.35-1.2c-.38-.54-.68-1.23-.89-2.07-.21-.83-.32-1.83-.33-2.98 0-1.15.1-2.14.3-2.98.21-.83.5-1.52.88-2.05s.82-.93 1.34-1.19 1.09-.39 1.7-.39 1.18.12 1.69.37c.52.25.96.64 1.34 1.18.37.53.67 1.21.88 2.04q.315 1.245.33 2.97c.01 1.15-.1 2.15-.3 2.98-.21.83-.5 1.53-.87 2.08s-.81.96-1.33 1.23a3.6 3.6 0 0 1-1.69.4zm-.02-1.42q.615 0 1.08-.27c.31-.18.57-.48.79-.88.22-.41.38-.95.49-1.61.11-.67.17-1.48.16-2.44 0-.96-.06-1.77-.17-2.44s-.27-1.2-.49-1.61-.48-.7-.79-.88q-.465-.27-1.08-.27c-.41 0-.77.09-1.09.27s-.59.48-.81.88c-.22.41-.39.95-.5 1.61-.11.67-.17 1.48-.16 2.44 0 .96.06 1.77.18 2.44s.28 1.2.5 1.61.49.7.8.88c.32.18.68.27 1.09.27M245.12 138.65v-1.67c1.1-.88 2.04-1.67 2.84-2.36s1.45-1.33 1.97-1.91.91-1.13 1.16-1.65.37-1.07.37-1.63c0-.73-.23-1.32-.7-1.75-.46-.44-1.15-.65-2.04-.65-.59 0-1.15.11-1.69.33s-1.02.5-1.44.85l-.2-1.69c.41-.3.91-.54 1.5-.7s1.26-.25 1.99-.25c.7 0 1.31.09 1.84.26.53.18.97.43 1.33.75s.64.71.82 1.17c.19.46.28.96.29 1.51 0 .72-.14 1.4-.43 2.04s-.71 1.28-1.25 1.9-1.2 1.25-1.97 1.89c-.78.64-1.65 1.31-2.62 2.02l6.41-.02v1.53l-8.17.03zM259.3 138.6l-.04-10.85-3.55 2.73v-1.82l3.82-2.95h1.39l.04 12.88h-1.66zM268.59 138.75a8.6 8.6 0 0 1-1.96-.21c-.6-.14-1.08-.33-1.42-.57l.41-1.6c.35.24.76.45 1.23.64s1.05.28 1.74.28c.9 0 1.6-.27 2.1-.79s.74-1.21.74-2.06c0-.9-.23-1.55-.68-1.96s-1.03-.61-1.74-.61c-.58 0-1.04.09-1.38.26s-.6.35-.76.54h-1.29l-.02-6.98 6.84-.02v1.53l-5.38.02v3.89c.25-.18.55-.34.9-.47s.79-.2 1.3-.2c.55 0 1.06.08 1.54.25.47.17.89.42 1.23.75.35.33.63.75.83 1.25.21.5.31 1.07.31 1.72s-.1 1.24-.3 1.78c-.2.53-.5.99-.89 1.37s-.86.67-1.43.89c-.56.21-1.21.32-1.93.32zM300.02 138.65v-1.67c1.1-.88 2.04-1.67 2.84-2.36s1.45-1.33 1.97-1.91.91-1.13 1.16-1.65.37-1.07.37-1.63c0-.73-.23-1.32-.7-1.75-.46-.44-1.15-.65-2.04-.65-.59 0-1.15.11-1.69.33s-1.02.5-1.44.85l-.2-1.69c.41-.3.91-.54 1.5-.7s1.26-.25 1.99-.25c.7 0 1.31.09 1.84.26.53.18.97.43 1.33.75s.64.71.82 1.17c.19.46.28.96.29 1.51 0 .72-.14 1.4-.43 2.04s-.71 1.28-1.25 1.9-1.2 1.25-1.97 1.89c-.78.64-1.65 1.31-2.62 2.02l6.41-.02v1.53l-8.17.03zM313.38 138.79c-.72 0-1.37-.08-1.96-.25s-1.06-.41-1.42-.72l.43-1.58c.33.27.72.53 1.2.76.47.23 1.05.35 1.72.34q1.515 0 2.25-.63c.49-.42.74-1.01.73-1.77 0-.72-.22-1.28-.66-1.69s-1.13-.61-2.08-.6h-1.8v-1.47h1.87c.66 0 1.2-.2 1.61-.57s.62-.9.62-1.59c0-.62-.21-1.12-.63-1.47-.42-.36-1.06-.54-1.94-.53-.59 0-1.13.11-1.64.32-.5.21-.91.45-1.22.71l-.26-1.6c.84-.59 1.91-.89 3.2-.89.65 0 1.22.08 1.73.25.5.17.93.4 1.28.69s.61.65.8 1.06q.27.615.27 1.38a3.06 3.06 0 0 1-.65 1.93c-.19.24-.43.44-.7.59s-.55.26-.85.34c.36.06.71.17 1.04.35.33.17.62.39.88.66.25.27.46.59.61.97s.23.8.23 1.27c0 .55-.11 1.06-.33 1.52s-.53.86-.94 1.19q-.615.495-1.47.78c-.57.19-1.2.28-1.9.29zM324.14 138.75c-.61 0-1.18-.12-1.7-.38q-.78-.39-1.35-1.2c-.38-.54-.68-1.23-.89-2.07-.21-.83-.32-1.83-.33-2.98 0-1.15.1-2.14.3-2.98.21-.83.5-1.52.88-2.05s.82-.93 1.34-1.19 1.09-.39 1.7-.39 1.18.12 1.69.37c.52.25.96.64 1.34 1.18.37.53.67 1.21.88 2.04q.315 1.245.33 2.97c.01 1.15-.1 2.15-.3 2.98-.21.83-.5 1.53-.87 2.08s-.81.96-1.33 1.23a3.6 3.6 0 0 1-1.69.4zm-.02-1.42q.615 0 1.08-.27c.31-.18.57-.48.79-.88.22-.41.38-.95.49-1.61.11-.67.17-1.48.16-2.44 0-.96-.06-1.77-.17-2.44s-.27-1.2-.49-1.61-.48-.7-.79-.88q-.465-.27-1.08-.27c-.41 0-.77.09-1.09.27s-.59.48-.81.88c-.22.41-.39.95-.5 1.61-.11.67-.17 1.48-.16 2.44 0 .96.06 1.77.18 2.44s.28 1.2.5 1.61.49.7.8.88c.32.18.68.27 1.09.27M354.93 138.65v-1.67c1.1-.88 2.04-1.67 2.84-2.36s1.45-1.33 1.97-1.91.91-1.13 1.16-1.65.37-1.07.37-1.63c0-.73-.23-1.32-.7-1.75-.46-.44-1.15-.65-2.04-.65-.59 0-1.15.11-1.69.33s-1.02.5-1.44.85l-.2-1.69c.41-.3.91-.54 1.5-.7s1.26-.25 1.99-.25c.7 0 1.31.09 1.84.26.53.18.97.43 1.33.75s.64.71.82 1.17c.19.46.28.96.29 1.51 0 .72-.14 1.4-.43 2.04s-.71 1.28-1.25 1.9-1.2 1.25-1.97 1.89c-.78.64-1.65 1.31-2.62 2.02l6.41-.02v1.53l-8.17.03zM368.29 138.79c-.72 0-1.37-.08-1.96-.25s-1.06-.41-1.42-.72l.43-1.58c.33.27.72.53 1.2.76.47.23 1.05.35 1.72.34q1.515 0 2.25-.63c.49-.42.74-1.01.73-1.77 0-.72-.22-1.28-.66-1.69s-1.13-.61-2.08-.6h-1.8v-1.47h1.87c.66 0 1.2-.2 1.61-.57s.62-.9.62-1.59c0-.62-.21-1.12-.63-1.47-.42-.36-1.06-.54-1.94-.53-.59 0-1.13.11-1.64.32-.5.21-.91.45-1.22.71l-.26-1.6c.84-.59 1.91-.89 3.2-.89.65 0 1.22.08 1.73.25.5.17.93.4 1.28.69s.61.65.8 1.06q.27.615.27 1.38a3.06 3.06 0 0 1-.65 1.93c-.19.24-.43.44-.7.59s-.55.26-.85.34c.36.06.71.17 1.04.35.33.17.62.39.88.66.25.27.46.59.61.97s.23.8.23 1.27c0 .55-.11 1.06-.33 1.52s-.53.86-.94 1.19q-.615.495-1.47.78c-.57.19-1.2.28-1.9.29zM378.4 138.75a8.6 8.6 0 0 1-1.96-.21c-.6-.14-1.08-.33-1.42-.57l.41-1.6c.35.24.76.45 1.23.64s1.05.28 1.74.28c.9 0 1.6-.27 2.1-.79s.74-1.21.74-2.06c0-.9-.23-1.55-.68-1.96s-1.03-.61-1.74-.61c-.58 0-1.04.09-1.38.26s-.6.35-.76.54h-1.29l-.02-6.98 6.84-.02v1.53l-5.38.02v3.89c.25-.18.55-.34.9-.47s.79-.2 1.3-.2c.55 0 1.06.08 1.54.25.47.17.89.42 1.23.75.35.33.63.75.83 1.25.21.5.31 1.07.31 1.72s-.1 1.24-.3 1.78c-.2.53-.5.99-.89 1.37s-.86.67-1.43.89c-.56.21-1.21.32-1.93.32zM410.14 138.65v-1.67c1.1-.88 2.04-1.67 2.84-2.36s1.45-1.33 1.97-1.91.91-1.13 1.16-1.65.37-1.07.37-1.63c0-.73-.23-1.32-.7-1.75-.46-.44-1.15-.65-2.04-.65-.59 0-1.15.11-1.69.33s-1.02.5-1.44.85l-.2-1.69c.41-.3.91-.54 1.5-.7s1.26-.25 1.99-.25c.7 0 1.31.09 1.84.26.53.18.97.43 1.33.75s.64.71.82 1.17c.19.46.28.96.29 1.51 0 .72-.14 1.4-.43 2.04s-.71 1.28-1.25 1.9-1.2 1.25-1.97 1.89c-.78.64-1.65 1.31-2.62 2.02l6.41-.02v1.53l-8.17.03zM420.15 138.62v-1.67c1.1-.88 2.04-1.67 2.84-2.36s1.45-1.33 1.97-1.91.91-1.13 1.16-1.65.37-1.07.37-1.63c0-.73-.23-1.32-.7-1.75-.46-.44-1.15-.65-2.04-.65-.59 0-1.15.11-1.69.33s-1.02.5-1.44.85l-.2-1.69c.41-.3.91-.53 1.5-.7.59-.16 1.26-.25 1.99-.25.7 0 1.31.09 1.84.26.53.18.97.43 1.33.75s.64.71.82 1.17c.19.46.28.96.29 1.51 0 .72-.14 1.4-.43 2.04s-.71 1.28-1.25 1.89c-.54.62-1.2 1.25-1.97 1.89-.78.64-1.65 1.31-2.62 2.02l6.41-.02v1.53l-8.17.03zM433.61 138.75a8.6 8.6 0 0 1-1.96-.21c-.6-.14-1.08-.33-1.42-.57l.41-1.6c.35.24.76.45 1.23.64s1.05.28 1.74.28c.9 0 1.6-.27 2.1-.79s.74-1.21.74-2.06c0-.9-.23-1.55-.68-1.96s-1.03-.61-1.74-.61c-.58 0-1.04.09-1.38.26s-.6.35-.76.54h-1.29l-.02-6.98 6.84-.02v1.53l-5.38.02v3.89c.25-.18.55-.34.9-.47s.79-.2 1.3-.2c.55 0 1.06.08 1.54.25.47.17.89.42 1.23.75.35.33.63.75.83 1.25.21.5.31 1.07.31 1.72s-.1 1.24-.3 1.78c-.2.53-.5.99-.89 1.37s-.86.67-1.43.89c-.56.21-1.21.32-1.93.32zM465.05 138.65v-1.67c1.1-.88 2.04-1.67 2.84-2.36s1.45-1.33 1.97-1.91.91-1.13 1.16-1.65.37-1.07.37-1.63c0-.73-.23-1.32-.7-1.75-.46-.44-1.15-.65-2.04-.65-.59 0-1.15.11-1.69.33s-1.02.5-1.44.85l-.2-1.69c.41-.3.91-.54 1.5-.7s1.26-.25 1.99-.25c.7 0 1.31.09 1.84.26.53.18.97.43 1.33.75s.64.71.82 1.17c.19.46.28.96.29 1.51 0 .72-.14 1.4-.43 2.04s-.71 1.28-1.25 1.9-1.2 1.25-1.97 1.89c-.78.64-1.65 1.31-2.62 2.02l6.41-.02v1.53l-8.17.03zM475.06 138.62v-1.67c1.1-.88 2.04-1.67 2.84-2.36s1.45-1.33 1.97-1.91.91-1.13 1.16-1.65.37-1.07.37-1.63c0-.73-.23-1.32-.7-1.75-.46-.44-1.15-.65-2.04-.65-.59 0-1.15.11-1.69.33s-1.02.5-1.44.85l-.2-1.69c.41-.3.91-.53 1.5-.7.59-.16 1.26-.25 1.99-.25.7 0 1.31.09 1.84.26.53.18.97.43 1.33.75s.64.71.82 1.17c.19.46.28.96.29 1.51 0 .72-.14 1.4-.43 2.04s-.71 1.28-1.25 1.89c-.54.62-1.2 1.25-1.97 1.89-.78.64-1.65 1.31-2.62 2.02l6.41-.02v1.53l-8.17.03zM489.17 138.75c-.61 0-1.18-.12-1.7-.38q-.78-.39-1.35-1.2c-.38-.54-.68-1.23-.89-2.07-.21-.83-.32-1.83-.33-2.98 0-1.15.1-2.14.3-2.98.21-.83.5-1.52.88-2.05s.82-.93 1.34-1.19 1.09-.39 1.7-.39 1.18.12 1.69.37c.52.25.96.64 1.34 1.18.37.53.67 1.21.88 2.04q.315 1.245.33 2.97c.01 1.15-.1 2.15-.3 2.98-.21.83-.5 1.53-.87 2.08s-.81.96-1.33 1.23a3.6 3.6 0 0 1-1.69.4zm-.02-1.42q.615 0 1.08-.27c.31-.18.57-.48.79-.88.22-.41.38-.95.49-1.61.11-.67.17-1.48.16-2.44 0-.96-.06-1.77-.17-2.44s-.27-1.2-.49-1.61-.48-.7-.79-.88q-.465-.27-1.08-.27c-.41 0-.77.09-1.09.27s-.59.48-.81.88c-.22.41-.39.95-.5 1.61-.11.67-.17 1.48-.16 2.44 0 .96.06 1.77.18 2.44s.28 1.2.5 1.61.49.7.8.88c.32.18.68.27 1.09.27M523.2 138.65v-1.67c1.1-.88 2.04-1.67 2.84-2.36s1.45-1.33 1.97-1.91.91-1.13 1.16-1.65.37-1.07.37-1.63c0-.73-.23-1.32-.7-1.75-.46-.44-1.15-.65-2.04-.65-.59 0-1.15.11-1.69.33s-1.02.5-1.44.85l-.2-1.69c.41-.3.91-.54 1.5-.7s1.26-.25 1.99-.25c.7 0 1.31.09 1.84.26.53.18.97.43 1.33.75s.64.71.82 1.17c.19.46.28.96.29 1.51 0 .72-.14 1.4-.43 2.04s-.71 1.28-1.25 1.9-1.2 1.25-1.97 1.89c-.78.64-1.65 1.31-2.62 2.02l6.41-.02v1.53l-8.17.03zM533.2 138.62v-1.67c1.1-.88 2.04-1.67 2.84-2.36s1.45-1.33 1.97-1.91.91-1.13 1.16-1.65.37-1.07.37-1.63c0-.73-.23-1.32-.7-1.75-.46-.44-1.15-.65-2.04-.65-.59 0-1.15.11-1.69.33s-1.02.5-1.44.85l-.2-1.69c.41-.3.91-.53 1.5-.7.59-.16 1.26-.25 1.99-.25.7 0 1.31.09 1.84.26.53.18.97.43 1.33.75s.64.71.82 1.17c.19.46.28.96.29 1.51 0 .72-.14 1.4-.43 2.04s-.71 1.28-1.25 1.89c-.54.62-1.2 1.25-1.97 1.89-.78.64-1.65 1.31-2.62 2.02l6.41-.02v1.53l-8.17.03zM546.67 138.75a8.6 8.6 0 0 1-1.96-.21c-.6-.14-1.08-.33-1.42-.57l.41-1.6c.35.24.76.45 1.23.64s1.05.28 1.74.28c.9 0 1.6-.27 2.1-.79s.74-1.21.74-2.06c0-.9-.23-1.55-.68-1.96s-1.03-.61-1.74-.61c-.58 0-1.04.09-1.38.26s-.6.35-.76.54h-1.29l-.02-6.98 6.84-.02v1.53l-5.38.02v3.89c.25-.18.55-.34.9-.47s.79-.2 1.3-.2c.55 0 1.06.08 1.54.25.47.17.89.42 1.23.75.35.33.63.75.83 1.25.21.5.31 1.07.31 1.72s-.1 1.24-.3 1.78c-.2.53-.5.99-.89 1.37s-.86.67-1.43.89c-.56.21-1.21.32-1.93.32zM33.07 224.44h-1.82l-.04-12.07-3.95 3.05v-2.02l4.24-3.29h1.52l.05 14.34zM36.63 225.23l5.71-15.94h1.6l-5.71 15.93h-1.6zM51.43 224.38h-1.82l-.04-12.07-3.95 3.05v-2.02l4.24-3.29h1.52z"/><path fill="#3B4856" d="M33.07 224.44h-1.82l-.04-12.07-3.95 3.05v-2.02l4.24-3.29h1.52l.05 14.34zM36.63 225.23l5.71-15.94h1.6l-5.71 15.93h-1.6zM51.43 224.38h-1.82l-.04-12.07-3.95 3.05v-2.02l4.24-3.29h1.52zM91.09 224.43l-9.14.03v-1.88c1.2-.98 2.25-1.85 3.13-2.61.88-.77 1.61-1.47 2.18-2.11s1-1.26 1.27-1.84c.28-.58.42-1.19.41-1.82 0-.79-.24-1.42-.72-1.91-.47-.49-1.17-.73-2.07-.72-.76 0-1.47.19-2.12.57s-1.24.85-1.75 1.43v-2.02c.5-.49 1.07-.89 1.71-1.19q.96-.45 2.22-.45c.75 0 1.41.1 1.99.29.58.2 1.07.48 1.46.84s.7.79.9 1.3c.21.51.31 1.07.32 1.68 0 .78-.15 1.5-.44 2.18-.3.68-.74 1.37-1.32 2.05s-1.3 1.39-2.16 2.12-1.84 1.52-2.94 2.38l7.06-.02v1.7zM91.98 225.23l5.71-15.94h1.6l-5.71 15.93h-1.6zM106.769 224.38h-1.82l-.04-12.07-3.95 3.05v-2.02l4.24-3.29h1.52z"/><path fill="#3B4856" d="m91.09 224.43-9.14.03v-1.88c1.2-.98 2.25-1.85 3.13-2.61.88-.77 1.61-1.47 2.18-2.11s1-1.26 1.27-1.84c.28-.58.42-1.19.41-1.82 0-.79-.24-1.42-.72-1.91-.47-.49-1.17-.73-2.07-.72-.76 0-1.47.19-2.12.57s-1.24.85-1.75 1.43v-2.02c.5-.49 1.07-.89 1.71-1.19q.96-.45 2.22-.45c.75 0 1.41.1 1.99.29.58.2 1.07.48 1.46.84s.7.79.9 1.3c.21.51.31 1.07.32 1.68 0 .78-.15 1.5-.44 2.18-.3.68-.74 1.37-1.32 2.05s-1.3 1.39-2.16 2.12-1.84 1.52-2.94 2.38l7.06-.02v1.7zM91.98 225.23l5.71-15.94h1.6l-5.71 15.93h-1.6zM106.769 224.38h-1.82l-.04-12.07-3.95 3.05v-2.02l4.24-3.29h1.52zM146.55 220.29c0 .67-.12 1.27-.37 1.8s-.6.99-1.06 1.37c-.45.38-.99.67-1.62.88-.63.2-1.32.3-2.08.31-.93 0-1.74-.11-2.42-.33s-1.24-.52-1.66-.88v-2c.42.43.98.79 1.68 1.1s1.5.46 2.42.46c.99 0 1.76-.24 2.33-.71s.85-1.12.84-1.96c0-.8-.26-1.42-.77-1.87s-1.3-.67-2.38-.66h-1.84v-1.69h1.92c.76 0 1.37-.21 1.84-.61q.705-.6.69-1.74c0-.68-.22-1.21-.67-1.61-.44-.39-1.08-.59-1.9-.58-.85 0-1.58.17-2.19.49s-1.15.7-1.65 1.13v-1.96c.46-.39 1.01-.7 1.65-.95s1.37-.36 2.2-.37c.68 0 1.29.09 1.84.26.55.18 1.01.43 1.39.77.38.33.67.73.87 1.19s.3.97.31 1.53c0 .45-.06.86-.2 1.22a3.083 3.083 0 0 1-1.36 1.61c-.31.18-.63.31-.98.39.41.06.81.19 1.19.38s.72.42 1.01.71.53.62.69 1.02c.17.39.25.83.25 1.31zM147.32 225.23l5.71-15.94h1.6l-5.71 15.93h-1.6zM162.12 224.38h-1.82l-.04-12.07-3.95 3.05v-2.02l4.24-3.29h1.52z"/><path fill="#3B4856" d="M146.55 220.29c0 .67-.12 1.27-.37 1.8s-.6.99-1.06 1.37c-.45.38-.99.67-1.62.88-.63.2-1.32.3-2.08.31-.93 0-1.74-.11-2.42-.33s-1.24-.52-1.66-.88v-2c.42.43.98.79 1.68 1.1s1.5.46 2.42.46c.99 0 1.76-.24 2.33-.71s.85-1.12.84-1.96c0-.8-.26-1.42-.77-1.87s-1.3-.67-2.38-.66h-1.84v-1.69h1.92c.76 0 1.37-.21 1.84-.61q.705-.6.69-1.74c0-.68-.22-1.21-.67-1.61-.44-.39-1.08-.59-1.9-.58-.85 0-1.58.17-2.19.49s-1.15.7-1.65 1.13v-1.96c.46-.39 1.01-.7 1.65-.95s1.37-.36 2.2-.37c.68 0 1.29.09 1.84.26.55.18 1.01.43 1.39.77.38.33.67.73.87 1.19s.3.97.31 1.53c0 .45-.06.86-.2 1.22a3.083 3.083 0 0 1-1.36 1.61c-.31.18-.63.31-.98.39.41.06.81.19 1.19.38s.72.42 1.01.71.53.62.69 1.02c.17.39.25.83.25 1.31zM147.32 225.23l5.71-15.94h1.6l-5.71 15.93h-1.6zM162.12 224.38h-1.82l-.04-12.07-3.95 3.05v-2.02l4.24-3.29h1.52zM200.16 221.04v3.4h-1.75v-3.4l-6.21.02v-1.24l5.56-9.72h2.36l.03 9.41h1.94v1.51h-1.94zm-1.76-1.51-.03-7.46-4.35 7.47 4.38-.02zM202.67 225.23l5.71-15.94h1.6l-5.71 15.93h-1.6zM217.47 224.38h-1.82l-.04-12.07-3.95 3.05v-2.02l4.24-3.29h1.52z"/><path fill="#3B4856" d="M200.16 221.04v3.4h-1.75v-3.4l-6.21.02v-1.24l5.56-9.72h2.36l.03 9.41h1.94v1.51h-1.94zm-1.76-1.51-.03-7.46-4.35 7.47 4.38-.02zM202.67 225.23l5.71-15.94h1.6l-5.71 15.93h-1.6zM217.47 224.38h-1.82l-.04-12.07-3.95 3.05v-2.02l4.24-3.29h1.52zM256.88 219.69c0 .75-.11 1.42-.34 2.03q-.345.915-.99 1.56c-.43.44-.96.77-1.58 1.01s-1.31.35-2.07.36c-.85 0-1.59-.09-2.22-.26s-1.16-.43-1.6-.74v-1.96c.45.37.97.69 1.57.95s1.34.38 2.25.38c.99 0 1.75-.31 2.29-.91s.81-1.39.8-2.36q0-1.56-.81-2.28c-.54-.48-1.21-.71-2.02-.71-.6 0-1.08.1-1.43.29-.35.2-.62.4-.81.61h-1.46l-.02-7.54 7.76-.03v1.7l-6.12.02v4.12c.28-.2.61-.38.99-.53.39-.15.85-.23 1.38-.23.61 0 1.19.09 1.73.28s1.01.48 1.41.86.72.85.95 1.42c.23.56.34 1.22.35 1.97zM258.02 225.23l5.71-15.94h1.6l-5.71 15.93h-1.6zM272.82 224.38H271l-.04-12.07-3.95 3.05v-2.02l4.24-3.29h1.52z"/><path fill="#3B4856" d="M256.88 219.69c0 .75-.11 1.42-.34 2.03q-.345.915-.99 1.56c-.43.44-.96.77-1.58 1.01s-1.31.35-2.07.36c-.85 0-1.59-.09-2.22-.26s-1.16-.43-1.6-.74v-1.96c.45.37.97.69 1.57.95s1.34.38 2.25.38c.99 0 1.75-.31 2.29-.91s.81-1.39.8-2.36q0-1.56-.81-2.28c-.54-.48-1.21-.71-2.02-.71-.6 0-1.08.1-1.43.29-.35.2-.62.4-.81.61h-1.46l-.02-7.54 7.76-.03v1.7l-6.12.02v4.12c.28-.2.61-.38.99-.53.39-.15.85-.23 1.38-.23.61 0 1.19.09 1.73.28s1.01.48 1.41.86.72.85.95 1.42c.23.56.34 1.22.35 1.97zM258.02 225.23l5.71-15.94h1.6l-5.71 15.93h-1.6zM272.82 224.38H271l-.04-12.07-3.95 3.05v-2.02l4.24-3.29h1.52zM312.79 219.73c0 .73-.12 1.4-.36 2-.25.6-.58 1.12-1 1.55-.43.44-.93.77-1.51 1.01s-1.2.35-1.87.36q-1.365 0-2.31-.45c-.63-.3-1.15-.73-1.55-1.29-.4-.55-.7-1.21-.89-1.99-.19-.77-.29-1.62-.29-2.54 0-1.25.11-2.4.33-3.44s.57-1.93 1.03-2.67 1.06-1.32 1.78-1.74 1.59-.62 2.59-.63c.72 0 1.31.07 1.78.21s.88.32 1.24.52v1.78c-.86-.58-1.87-.87-3.02-.87-.63 0-1.17.14-1.64.4-.47.27-.86.63-1.19 1.09s-.58 1.01-.76 1.64c-.19.63-.3 1.31-.35 2.03.44-.6.94-1.05 1.52-1.34.57-.29 1.2-.44 1.88-.45q.96 0 1.8.3c.56.21 1.05.51 1.46.92.42.41.74.92.98 1.52s.35 1.29.36 2.06zm-4.81 3.32q.585 0 1.11-.21c.35-.14.66-.35.93-.61s.48-.61.64-1.01c.16-.41.24-.88.24-1.43 0-.53-.08-1.01-.24-1.42s-.36-.76-.62-1.04a2.55 2.55 0 0 0-1.87-.84c-.44 0-.85.08-1.23.22-.38.15-.71.36-.98.64s-.49.63-.65 1.04q-.24.615-.24 1.44c0 .96.27 1.74.79 2.33s1.23.88 2.12.88zM313.37 225.23l5.71-15.94h1.6l-5.71 15.93h-1.6zM328.16 224.38h-1.82l-.04-12.07-3.95 3.05v-2.02l4.24-3.29h1.52z"/><path fill="#3B4856" d="M312.79 219.73c0 .73-.12 1.4-.36 2-.25.6-.58 1.12-1 1.55-.43.44-.93.77-1.51 1.01s-1.2.35-1.87.36q-1.365 0-2.31-.45c-.63-.3-1.15-.73-1.55-1.29-.4-.55-.7-1.21-.89-1.99-.19-.77-.29-1.62-.29-2.54 0-1.25.11-2.4.33-3.44s.57-1.93 1.03-2.67 1.06-1.32 1.78-1.74 1.59-.62 2.59-.63c.72 0 1.31.07 1.78.21s.88.32 1.24.52v1.78c-.86-.58-1.87-.87-3.02-.87-.63 0-1.17.14-1.64.4-.47.27-.86.63-1.19 1.09s-.58 1.01-.76 1.64c-.19.63-.3 1.31-.35 2.03.44-.6.94-1.05 1.52-1.34.57-.29 1.2-.44 1.88-.45q.96 0 1.8.3c.56.21 1.05.51 1.46.92.42.41.74.92.98 1.52s.35 1.29.36 2.06zm-4.81 3.32q.585 0 1.11-.21c.35-.14.66-.35.93-.61s.48-.61.64-1.01c.16-.41.24-.88.24-1.43 0-.53-.08-1.01-.24-1.42s-.36-.76-.62-1.04a2.55 2.55 0 0 0-1.87-.84c-.44 0-.85.08-1.23.22-.38.15-.71.36-.98.64s-.49.63-.65 1.04q-.24.615-.24 1.44c0 .96.27 1.74.79 2.33s1.23.88 2.12.88zM313.37 225.23l5.71-15.94h1.6l-5.71 15.93h-1.6zM328.16 224.38h-1.82l-.04-12.07-3.95 3.05v-2.02l4.24-3.29h1.52zM361.75 224.45h-1.96l6.08-12.65-7.3.03v-1.7l9.21-.03v1.6l-6.03 12.76zM368.71 225.23l5.71-15.94h1.6l-5.71 15.93h-1.6zM383.51 224.38h-1.82l-.04-12.07-3.95 3.05v-2.02l4.24-3.29h1.52z"/><path fill="#3B4856" d="M361.75 224.45h-1.96l6.08-12.65-7.3.03v-1.7l9.21-.03v1.6l-6.03 12.76zM368.71 225.23l5.71-15.94h1.6l-5.71 15.93h-1.6zM383.51 224.38h-1.82l-.04-12.07-3.95 3.05v-2.02l4.24-3.29h1.52zM423.35 220.51c0 .64-.12 1.22-.35 1.73-.24.51-.57.95-1 1.3-.43.36-.93.62-1.5.81s-1.2.28-1.88.29c-.71 0-1.35-.09-1.94-.27s-1.09-.44-1.52-.79-.76-.78-1-1.28-.36-1.07-.37-1.71c0-.93.24-1.72.72-2.35.49-.63 1.14-1.11 1.97-1.42-.67-.26-1.2-.67-1.6-1.21-.39-.54-.59-1.22-.6-2.02q0-.885.33-1.56c.22-.45.52-.84.9-1.15s.83-.55 1.36-.71 1.1-.24 1.71-.25c.6 0 1.16.07 1.67.22q.765.225 1.35.69c.39.31.69.68.91 1.13s.33.97.33 1.57c0 .81-.2 1.5-.59 2.05-.4.55-.92.96-1.58 1.23.8.28 1.45.73 1.93 1.35.49.62.73 1.4.74 2.34zm-4.73 2.56c.41 0 .8-.07 1.15-.2s.66-.31.92-.54.46-.52.61-.87.22-.74.22-1.18-.08-.83-.22-1.18c-.15-.35-.35-.63-.61-.87-.26-.23-.57-.41-.92-.54-.35-.12-.74-.19-1.15-.19-.43 0-.82.06-1.19.19s-.68.31-.95.54-.47.53-.62.87c-.14.35-.22.74-.22 1.18s.08.83.22 1.18c.15.35.36.64.62.87.27.23.58.41.95.54s.76.19 1.19.19zm-.02-6.96c.72 0 1.31-.21 1.76-.62s.68-.97.67-1.69c0-.72-.23-1.28-.69-1.69-.46-.4-1.04-.61-1.76-.6-.72 0-1.31.21-1.78.62s-.7.97-.69 1.69c0 .72.24 1.28.71 1.69.47.4 1.06.61 1.78.6M424.06 225.23l5.71-15.94h1.6l-5.71 15.93h-1.6zM438.86 224.38h-1.82l-.04-12.07-3.95 3.05v-2.02l4.24-3.29h1.52z"/><path fill="#3B4856" d="M423.35 220.51c0 .64-.12 1.22-.35 1.73-.24.51-.57.95-1 1.3-.43.36-.93.62-1.5.81s-1.2.28-1.88.29c-.71 0-1.35-.09-1.94-.27s-1.09-.44-1.52-.79-.76-.78-1-1.28-.36-1.07-.37-1.71c0-.93.24-1.72.72-2.35.49-.63 1.14-1.11 1.97-1.42-.67-.26-1.2-.67-1.6-1.21-.39-.54-.59-1.22-.6-2.02q0-.885.33-1.56c.22-.45.52-.84.9-1.15s.83-.55 1.36-.71 1.1-.24 1.71-.25c.6 0 1.16.07 1.67.22q.765.225 1.35.69c.39.31.69.68.91 1.13s.33.97.33 1.57c0 .81-.2 1.5-.59 2.05-.4.55-.92.96-1.58 1.23.8.28 1.45.73 1.93 1.35.49.62.73 1.4.74 2.34zm-4.73 2.56c.41 0 .8-.07 1.15-.2s.66-.31.92-.54.46-.52.61-.87.22-.74.22-1.18-.08-.83-.22-1.18c-.15-.35-.35-.63-.61-.87-.26-.23-.57-.41-.92-.54-.35-.12-.74-.19-1.15-.19-.43 0-.82.06-1.19.19s-.68.31-.95.54-.47.53-.62.87c-.14.35-.22.74-.22 1.18s.08.83.22 1.18c.15.35.36.64.62.87.27.23.58.41.95.54s.76.19 1.19.19zm-.02-6.96c.72 0 1.31-.21 1.76-.62s.68-.97.67-1.69c0-.72-.23-1.28-.69-1.69-.46-.4-1.04-.61-1.76-.6-.72 0-1.31.21-1.78.62s-.7.97-.69 1.69c0 .72.24 1.28.71 1.69.47.4 1.06.61 1.78.6M424.06 225.23l5.71-15.94h1.6l-5.71 15.93h-1.6zM438.86 224.38h-1.82l-.04-12.07-3.95 3.05v-2.02l4.24-3.29h1.52zM478.82 215.97c0 1.35-.11 2.56-.34 3.63s-.58 1.99-1.05 2.73-1.07 1.32-1.8 1.72c-.73.39-1.6.59-2.6.6-.73 0-1.34-.07-1.81-.2-.47-.14-.9-.31-1.27-.53v-1.76c.9.58 1.93.88 3.08.87.61 0 1.16-.13 1.63-.4s.87-.62 1.2-1.08c.32-.46.58-1.01.76-1.63.18-.63.3-1.3.35-2.02-.41.52-.9.91-1.48 1.16-.57.25-1.19.37-1.86.38q-.96 0-1.8-.3c-.56-.2-1.05-.51-1.46-.91s-.74-.89-.98-1.48-.35-1.26-.36-2.02c0-.72.12-1.37.36-1.96s.58-1.09 1-1.51c.43-.42.93-.75 1.51-.99.58-.23 1.2-.35 1.87-.36.89 0 1.66.14 2.3.44s1.16.71 1.57 1.25c.4.53.7 1.17.89 1.92s.29 1.57.29 2.46zm-4.98-4.44q-.585 0-1.11.21c-.35.13-.66.33-.93.59s-.48.59-.64.98-.24.85-.24 1.37q0 .78.24 1.38c.15.4.36.74.62 1.01s.55.47.87.61.65.2 1 .2q.66 0 1.23-.21c.38-.14.71-.35.98-.62.27-.28.49-.61.65-1.01s.24-.87.24-1.4c0-.93-.27-1.68-.79-2.25s-1.23-.85-2.12-.84zM479.41 225.23l5.71-15.94h1.6l-5.71 15.93h-1.6zM494.21 224.38h-1.82l-.04-12.07-3.95 3.05v-2.02l4.24-3.29h1.52z"/><path fill="#3B4856" d="M478.82 215.97c0 1.35-.11 2.56-.34 3.63s-.58 1.99-1.05 2.73-1.07 1.32-1.8 1.72c-.73.39-1.6.59-2.6.6-.73 0-1.34-.07-1.81-.2-.47-.14-.9-.31-1.27-.53v-1.76c.9.58 1.93.88 3.08.87.61 0 1.16-.13 1.63-.4s.87-.62 1.2-1.08c.32-.46.58-1.01.76-1.63.18-.63.3-1.3.35-2.02-.41.52-.9.91-1.48 1.16-.57.25-1.19.37-1.86.38q-.96 0-1.8-.3c-.56-.2-1.05-.51-1.46-.91s-.74-.89-.98-1.48-.35-1.26-.36-2.02c0-.72.12-1.37.36-1.96s.58-1.09 1-1.51c.43-.42.93-.75 1.51-.99.58-.23 1.2-.35 1.87-.36.89 0 1.66.14 2.3.44s1.16.71 1.57 1.25c.4.53.7 1.17.89 1.92s.29 1.57.29 2.46zm-4.98-4.44q-.585 0-1.11.21c-.35.13-.66.33-.93.59s-.48.59-.64.98-.24.85-.24 1.37q0 .78.24 1.38c.15.4.36.74.62 1.01s.55.47.87.61.65.2 1 .2q.66 0 1.23-.21c.38-.14.71-.35.98-.62.27-.28.49-.61.65-1.01s.24-.87.24-1.4c0-.93-.27-1.68-.79-2.25s-1.23-.85-2.12-.84zM479.41 225.23l5.71-15.94h1.6l-5.71 15.93h-1.6zM494.21 224.38h-1.82l-.04-12.07-3.95 3.05v-2.02l4.24-3.29h1.52zM523.92 224.46h-1.82l-.04-12.07-3.95 3.05v-2.02l4.24-3.29h1.52zM532.52 224.63q-1.02 0-1.89-.42c-.58-.28-1.08-.73-1.5-1.34-.42-.6-.75-1.37-1-2.29-.24-.93-.37-2.03-.37-3.31s.11-2.38.35-3.31.56-1.69.98-2.29q.63-.9 1.5-1.32a4.4 4.4 0 0 1 1.89-.43c.68-.01 1.31.13 1.88.41s1.07.71 1.49 1.3.74 1.35.98 2.27q.36 1.38.36 3.3c0 1.28-.11 2.38-.34 3.31q-.345 1.395-.96 2.31c-.41.62-.9 1.07-1.48 1.36s-1.2.45-1.88.45zm-.03-1.58q.675 0 1.2-.3c.35-.2.64-.53.88-.98s.42-1.05.54-1.79.18-1.64.18-2.71-.07-1.97-.19-2.71-.3-1.34-.55-1.79c-.24-.45-.54-.78-.88-.98q-.525-.3-1.2-.3c-.45 0-.86.1-1.21.3s-.65.53-.9.98c-.25.46-.43 1.05-.55 1.79s-.19 1.64-.18 2.71.07 1.97.2 2.71.31 1.34.56 1.79c.24.45.54.78.89.98s.76.3 1.21.29zM537.99 225.21l5.71-15.94h1.6l-5.71 15.93h-1.6zM552.78 224.36h-1.82l-.04-12.07-3.95 3.05v-2.02l4.24-3.29h1.52z"/><path fill="#3B4856" d="M523.92 224.46h-1.82l-.04-12.07-3.95 3.05v-2.02l4.24-3.29h1.52zM532.52 224.63q-1.02 0-1.89-.42c-.58-.28-1.08-.73-1.5-1.34-.42-.6-.75-1.37-1-2.29-.24-.93-.37-2.03-.37-3.31s.11-2.38.35-3.31.56-1.69.98-2.29q.63-.9 1.5-1.32a4.4 4.4 0 0 1 1.89-.43c.68-.01 1.31.13 1.88.41s1.07.71 1.49 1.3.74 1.35.98 2.27q.36 1.38.36 3.3c0 1.28-.11 2.38-.34 3.31q-.345 1.395-.96 2.31c-.41.62-.9 1.07-1.48 1.36s-1.2.45-1.88.45zm-.03-1.58q.675 0 1.2-.3c.35-.2.64-.53.88-.98s.42-1.05.54-1.79.18-1.64.18-2.71-.07-1.97-.19-2.71-.3-1.34-.55-1.79c-.24-.45-.54-.78-.88-.98q-.525-.3-1.2-.3c-.45 0-.86.1-1.21.3s-.65.53-.9.98c-.25.46-.43 1.05-.55 1.79s-.19 1.64-.18 2.71.07 1.97.2 2.71.31 1.34.56 1.79c.24.45.54.78.89.98s.76.3 1.21.29zM537.99 225.21l5.71-15.94h1.6l-5.71 15.93h-1.6zM552.78 224.36h-1.82l-.04-12.07-3.95 3.05v-2.02l4.24-3.29h1.52zM722.41 224.46l-9.14.03v-1.88c1.2-.98 2.25-1.85 3.13-2.62.88-.76 1.61-1.47 2.18-2.11s1-1.25 1.27-1.84c.28-.58.42-1.19.41-1.82 0-.79-.24-1.42-.72-1.91-.47-.49-1.17-.73-2.07-.72-.76 0-1.47.19-2.12.57s-1.24.85-1.75 1.43v-2.02c.5-.49 1.07-.89 1.71-1.19s1.38-.44 2.22-.45c.75 0 1.41.1 1.99.29s1.07.48 1.46.84.7.79.9 1.3c.21.51.31 1.07.32 1.68 0 .77-.15 1.5-.44 2.18-.3.68-.74 1.37-1.32 2.05s-1.3 1.39-2.16 2.12-1.84 1.53-2.94 2.38l7.06-.02v1.7zM728.83 224.63q-1.02 0-1.89-.42c-.58-.28-1.08-.73-1.5-1.33s-.75-1.37-1-2.3c-.24-.93-.37-2.03-.37-3.31s.11-2.38.35-3.31.56-1.69.98-2.29q.63-.9 1.5-1.32a4.4 4.4 0 0 1 1.89-.43c.68 0 1.31.14 1.88.41.57.28 1.07.71 1.49 1.3s.74 1.35.98 2.27q.36 1.38.36 3.3c0 1.28-.11 2.38-.34 3.31q-.345 1.395-.96 2.31c-.41.61-.9 1.07-1.48 1.36s-1.2.44-1.88.45zm-.03-1.58q.675 0 1.2-.3c.35-.2.64-.53.88-.98s.42-1.05.54-1.79.18-1.64.18-2.71-.07-1.97-.19-2.71-.3-1.34-.55-1.79c-.24-.45-.54-.78-.88-.98q-.525-.3-1.2-.3c-.45 0-.86.1-1.21.3s-.65.53-.9.98-.43 1.05-.55 1.79-.19 1.64-.18 2.71c0 1.07.07 1.97.2 2.71s.31 1.34.56 1.79c.24.45.54.78.89.98s.76.3 1.21.3M741.73 224.39h-1.82l-.04-12.07-3.95 3.05v-2.02l4.24-3.29h1.52zM748.83 224.37h-1.96l6.08-12.65-7.3.02v-1.7l9.21-.03v1.6z"/><path fill="#3B4856" d="m722.41 224.46-9.14.03v-1.88c1.2-.98 2.25-1.85 3.13-2.62.88-.76 1.61-1.47 2.18-2.11s1-1.25 1.27-1.84c.28-.58.42-1.19.41-1.82 0-.79-.24-1.42-.72-1.91-.47-.49-1.17-.73-2.07-.72-.76 0-1.47.19-2.12.57s-1.24.85-1.75 1.43v-2.02c.5-.49 1.07-.89 1.71-1.19s1.38-.44 2.22-.45c.75 0 1.41.1 1.99.29s1.07.48 1.46.84.7.79.9 1.3c.21.51.31 1.07.32 1.68 0 .77-.15 1.5-.44 2.18-.3.68-.74 1.37-1.32 2.05s-1.3 1.39-2.16 2.12-1.84 1.53-2.94 2.38l7.06-.02v1.7zM728.83 224.63q-1.02 0-1.89-.42c-.58-.28-1.08-.73-1.5-1.33s-.75-1.37-1-2.3c-.24-.93-.37-2.03-.37-3.31s.11-2.38.35-3.31.56-1.69.98-2.29q.63-.9 1.5-1.32a4.4 4.4 0 0 1 1.89-.43c.68 0 1.31.14 1.88.41.57.28 1.07.71 1.49 1.3s.74 1.35.98 2.27q.36 1.38.36 3.3c0 1.28-.11 2.38-.34 3.31q-.345 1.395-.96 2.31c-.41.61-.9 1.07-1.48 1.36s-1.2.44-1.88.45zm-.03-1.58q.675 0 1.2-.3c.35-.2.64-.53.88-.98s.42-1.05.54-1.79.18-1.64.18-2.71-.07-1.97-.19-2.71-.3-1.34-.55-1.79c-.24-.45-.54-.78-.88-.98q-.525-.3-1.2-.3c-.45 0-.86.1-1.21.3s-.65.53-.9.98-.43 1.05-.55 1.79-.19 1.64-.18 2.71c0 1.07.07 1.97.2 2.71s.31 1.34.56 1.79c.24.45.54.78.89.98s.76.3 1.21.3M741.73 224.39h-1.82l-.04-12.07-3.95 3.05v-2.02l4.24-3.29h1.52zM748.83 224.37h-1.96l6.08-12.65-7.3.02v-1.7l9.21-.03v1.6z"/><path stroke="#3B4856" stroke-linecap="round" stroke-linejoin="round" d="M559.87 33.51H16.4a5 5 0 0 0-5 5v108.61a5 5 0 0 0 5 5h543.47a5 5 0 0 0 5-5V38.51a5 5 0 0 0-5-5"/></g><defs><clipPath id="a"><path fill="#fff" d="M0 0h898.98v257.79H0z"/></clipPath></defs></svg>